<?xml version="1.0" encoding="UTF-8" standalone="no"?>
<!DOCTYPE svg PUBLIC "-//W3C//DTD SVG 1.1//EN" "http://www.w3.org/Graphics/SVG/1.1/DTD/svg11.dtd">
<svg width="100%" height="100%" viewBox="0 0 1131 814" version="1.1" xmlns="http://www.w3.org/2000/svg" xmlns:xlink="http://www.w3.org/1999/xlink" xml:space="preserve" xmlns:serif="http://www.serif.com/" style="fill-rule:evenodd;clip-rule:evenodd;stroke-miterlimit:10;">
    <g transform="matrix(1,0,0,1,-34.96,-43.43)">
        <path d="M619.44,176.18C548.07,188.24 476.8,183.07 408.24,175.55C339.68,168.03 271.29,158.21 199.89,161.17C153.96,163.07 102.81,172.17 70.74,198.62C39.87,224.06 35.06,258.39 35,289.38C34.92,312.69 36.94,336.81 53.46,355.38C64.94,368.26 82.61,377.49 95.92,389.38C142.23,430.68 128.15,495.71 97.76,551C83.5,576.94 66.06,602.45 56.35,629C46.64,655.55 45.35,684 62.73,705.65C79.91,727 113.22,739.14 148,745.41C218.54,758.15 297.13,750.24 373.17,739.52C541.45,715.79 708,678.67 874.19,641.64C935.68,627.93 997.44,614.16 1056.68,594.4C1089.58,583.4 1123.08,569.71 1144.33,548.4C1171.33,521.4 1172.01,484.47 1145.99,462.4C1102.33,425.4 1003.51,433.61 969.74,391.31C951.16,368.02 959.25,336.39 974.04,308.45C1005.75,248.53 1067.04,189.33 1059.1,129.59C1053.62,88.59 1011.81,54.66 955.77,45.82C897.03,36.56 821.59,54.12 787.77,95.38C753,137.89 682.46,165.54 619.44,176.18Z" style="fill:rgb(0,0,128);fill-opacity:0.1;fill-rule:nonzero;"/>
    </g>
    <rect x="87.07" y="105.03" width="415.7" height="195.79" style="fill:rgb(86,86,97);"/>
    <rect x="96.65" y="119.43" width="398" height="166.99" style="fill:rgb(223,230,245);"/>
    <g transform="matrix(1,0,0,1,-34.96,-43.43)">
        <path d="M159.63,243.47C153.906,244.165 148.308,245.66 143,247.91L154,237.45C154.795,236.599 155.754,235.919 156.82,235.45C158.6,234.77 160.65,235.29 162.47,234.69C165.4,233.69 166.86,230.17 169.78,229.16C171.78,228.48 173.96,229.16 176.06,229.01C180.25,228.73 183.57,225.31 185.7,221.68C187.83,218.05 189.26,213.98 191.99,210.78C195.86,206.23 201.86,204.03 206.18,199.89C208.1,198.05 209.65,195.89 211.49,193.96C218.889,186.542 229.985,184.109 239.81,187.75C241.114,188.409 242.541,188.787 244,188.86C245.15,188.722 246.261,188.358 247.27,187.79L260.81,181.3C268.391,183.731 275.543,187.342 282,192C283.003,192.884 284.226,193.481 285.54,193.73C289.16,194.02 290.7,189.37 293.01,186.57C296.17,182.73 302.07,182.13 306.72,183.9C311.37,185.67 315,189.33 318.3,193C319.81,194.69 321.4,196.48 323.56,197.15C325.351,197.572 327.221,197.527 328.99,197.02C339.438,194.644 348.63,188.446 354.75,179.65C355.68,178.29 356.83,176.71 358.48,176.73C359.277,176.806 360.042,177.085 360.7,177.54C366.547,180.934 371.986,184.988 376.91,189.62C380.65,193.14 384.15,197.03 388.64,199.53C393.13,202.03 398.99,202.85 403.28,200.04C402.58,202.83 405.28,205.51 408.09,206.1C410.9,206.69 413.81,205.88 416.67,205.51C424.652,204.519 432.695,206.902 438.85,212.08C451.877,213.52 463.206,221.767 468.58,233.72C470.7,238.61 473.51,245.16 478.78,244.35C480.55,244.08 482.25,242.9 483.99,243.35C485.161,243.777 486.197,244.509 486.99,245.47C491.51,249.87 497.68,252 503.37,254.7C509.06,257.4 514.82,261.26 516.82,267.23C511.89,267.92 507.02,265.93 502.11,265.1C497.2,264.27 491.21,265.15 488.86,269.55C487.92,271.33 487.61,273.6 485.96,274.75C484.831,275.383 483.541,275.672 482.25,275.58C471.043,275.723 459.97,273.12 450,268C443.241,277.83 433.227,284.968 421.73,288.15C421.41,283.81 416.89,280.65 412.53,280.59C408.17,280.53 404.11,282.85 400.75,285.59C397.478,288.295 394.635,291.481 392.32,295.04C390.39,298.04 388.79,301.27 386.17,303.64C383.55,306.01 379.45,307.25 376.44,305.39C374.77,304.39 373.7,302.54 372.06,301.44C368.33,298.95 362.63,300.77 359.35,297.7C356.98,295.48 356.94,291.56 354.67,289.24C351.8,286.31 346.67,287.29 343.46,289.82C340.25,292.35 338.11,296.03 335.16,298.87C327.51,306.24 315.8,306.87 305.16,307.07C305.16,304.7 306.64,302.64 307.68,300.52C310.63,294.52 309.82,287.27 307.11,281.18C304.4,275.09 300,270 295.69,265C290.83,270.18 293.06,279.21 288.69,284.84C286.92,287.13 284.24,288.58 282.39,290.84C280.08,293.62 278.28,297.98 274.68,297.71C272.92,297.58 271.5,296.26 270.31,294.96C265.72,289.96 261.49,283.64 254.82,282.34C252.21,281.83 249.51,282.18 246.82,281.95C237.967,280.894 231.06,273.607 230.48,264.71C224.84,266.24 218.8,267.55 213.16,269.08C211.59,269.51 209.88,269.94 208.36,269.35C206.36,268.56 205.36,266.3 203.71,264.91C201.28,262.91 197.71,262.99 194.65,263.65C191.59,264.31 188.48,265.43 185.34,265.08C184.691,262.218 184.529,259.266 184.86,256.35L173.66,255.35C172.184,255.305 170.725,255.021 169.34,254.51C168.294,254.025 167.329,253.38 166.48,252.6C163.721,249.945 161.408,246.862 159.63,243.47Z" style="fill:rgb(0,0,128);fill-rule:nonzero;"/>
    </g>
    <g transform="matrix(1,0,0,1,-34.96,-43.43)">
        <path d="M187.22,236.34C188.6,234.91 189.78,233.25 191.43,232.15C192.89,231.285 194.457,230.613 196.09,230.15C208.09,225.92 217.46,216.68 227.04,208.32C235.48,200.95 244.35,194.09 253.21,187.24L256.58,189.7L248.49,193C247.71,193.32 246.81,193.8 246.77,194.64C246.806,195.175 247.033,195.679 247.41,196.06C249.49,198.74 251.83,201.6 255.14,202.35C256.72,202.71 258.63,202.66 259.61,203.95C260.001,204.589 260.272,205.294 260.41,206.03C261.69,210.39 265.64,213.38 269.52,215.75C277.184,220.414 285.493,223.925 294.18,226.17C287.613,225.97 281.128,224.658 275,222.29C273.17,221.622 271.417,220.761 269.77,219.72C266.28,217.44 263.66,214.05 260.27,211.63C256.88,209.21 252.04,207.92 248.63,210.31C247.7,210.97 246.8,211.91 245.63,211.85C244.46,211.79 243.63,210.67 242.63,209.98C240.08,208.16 236.52,209.37 233.79,210.91C225.626,215.558 219.089,222.609 215.07,231.1C227.274,231.913 239.384,228.412 249.27,221.21C255.171,229.471 263.747,235.446 273.54,238.12C272.1,239.87 269.73,240.44 267.62,241.26C261.804,243.568 257.261,248.282 255.17,254.18C253.538,251.971 252.362,249.458 251.71,246.79C248.466,248.611 245.327,250.614 242.31,252.79C245.18,250.941 247.539,248.399 249.17,245.4C243.982,244.137 238.512,244.724 233.71,247.06C230.21,248.78 226.97,251.46 223.07,251.67C223.594,247.361 220.93,243.255 216.78,241.98C214.03,241.21 210.48,241.53 209,239.08C208.662,238.378 208.365,237.656 208.11,236.92C206.97,234.37 203.95,233.09 201.16,233.17C198.37,233.25 195.74,234.39 193.16,235.52C189.48,237.14 185.83,238.92 182.09,240.38C183.78,238.94 185.67,237.9 187.22,236.34Z" style="fill:white;fill-rule:nonzero;"/>
    </g>
    <g transform="matrix(1,0,0,1,-34.96,-43.43)">
        <path d="M251.51,271.41C256.476,271.99 261.508,271.191 266.05,269.1C268.53,267.95 270.9,266.41 273.59,265.95C276.28,265.49 279.53,266.56 280.42,269.15C283.65,266.83 284.24,262.22 286.83,259.2C290.64,254.75 298.03,255.03 302.83,258.4C307.63,261.77 310.31,267.4 312.31,272.86C313.82,277.02 315.17,281.47 318.31,284.56C321.45,287.65 327.22,288.65 330.15,285.33C326.181,280.028 325.566,272.903 328.57,267C329.25,265.71 330.12,264.41 330.07,263C329.96,259.86 326.07,258.62 323.57,256.7C318.16,252.56 318.87,243.92 314.49,238.7C312.17,235.93 308.24,233.49 308.91,229.94C322.229,232.584 334.858,237.957 346,245.72C347.802,247.111 349.754,248.295 351.82,249.25C354.58,250.36 357.63,250.49 360.44,251.45C369.79,254.63 375.2,266.33 385.04,267.14C389.94,267.54 394.53,265.02 399.11,263.21C418.58,255.52 440.55,260.37 460.68,266.12C453.68,262.27 443.79,262.84 439.35,256.2C437.83,253.93 437.16,251.01 435.05,249.27C430.91,245.85 424.86,249.14 419.51,249.65C414.329,250.077 409.294,247.716 406.31,243.46C404.87,241.35 403.96,238.83 402.07,237.13C399.3,234.65 395.21,234.55 391.49,234.59L374.04,234.75C371.11,234.75 367.81,234.64 365.85,232.46C365.208,231.514 364.5,230.615 363.73,229.77C362.58,228.77 360.98,228.64 359.49,228.43C354.624,227.752 349.921,226.197 345.61,223.84C344.761,223.481 344.056,222.847 343.61,222.04C342.49,219.39 346.55,217.92 348.82,216.15C352.52,213.25 351.7,207.54 350.52,203C353.588,202.342 356.412,200.838 358.67,198.66C354.47,194.79 349.86,189.51 351.67,184.1C352.07,182.91 352.29,180.98 351.04,181.01C349.359,184.661 346.556,187.682 343.04,189.63C341.917,190.089 340.927,190.821 340.16,191.76C338.89,193.76 340.21,196.81 338.63,198.59C338.059,199.156 337.354,199.569 336.58,199.79C331.31,201.68 324.82,202.07 321.65,206.69C320.581,208.57 319.776,210.589 319.26,212.69C315.561,223.318 306.69,231.36 295.75,234C293.93,234.42 291.94,234.75 290.66,236.11C289.66,237.11 289.32,238.54 288.49,239.66C286.83,241.91 283.82,242.52 281.21,243.52C273.74,246.37 269.15,252.89 264.98,259.34C263.22,262.06 261.93,262.88 259.04,264.15C257.277,264.817 255.658,265.815 254.27,267.09C254,267.39 251.28,271.38 251.51,271.41Z" style="fill:white;fill-rule:nonzero;"/>
    </g>
    <g transform="matrix(1,0,0,1,-34.96,-43.43)">
        <path d="M383.54,215.7C380.236,217.422 376.747,218.764 373.14,219.7C374.857,220.191 376.504,220.9 378.04,221.81C377.523,223.883 376.308,225.716 374.6,227C378.6,227.13 382.39,228.6 386.24,229.65C392.63,231.38 399.24,231.95 405.86,232.52L396.86,225.95C395.54,224.95 394.12,223.89 393.79,222.29C393.658,220.811 394.04,219.331 394.87,218.1C397.15,213.79 399.92,209.85 402.54,205.77C399.32,206.88 395.09,205.96 392.19,207.31C390.38,208.15 390.06,209.93 388.98,211.42C387.523,213.249 385.66,214.714 383.54,215.7Z" style="fill:white;fill-rule:nonzero;"/>
    </g>
    <g transform="matrix(1,0,0,1,-34.96,-43.43)">
        <path d="M438,225.76C437.059,228.073 435.704,230.195 434,232.02C435.603,233.484 437.604,234.441 439.75,234.77C440.848,234.861 441.94,235.018 443.02,235.24C444.272,235.666 445.445,236.298 446.49,237.11C453.49,241.96 461.02,247.55 462.97,255.84C465.577,254.38 468.904,255.131 470.63,257.57C471.49,258.88 471.93,260.66 473.36,261.3C474.79,261.94 476.36,261.1 477.49,260.13C478.62,259.16 479.74,257.97 481.21,257.63C482.127,257.48 483.065,257.511 483.97,257.72L497.28,259.87C493.546,256.1 488.3,254.213 483.02,254.74C479.8,255.09 476.44,256.31 473.45,255.09C470.46,253.87 468.92,250.65 466.56,248.47C463.56,245.69 459.23,244.63 456.24,241.82C453.75,239.46 452.43,236.12 450.17,233.54C447.72,230.73 444.23,228.91 442.08,225.87C441.21,224.64 440.52,223.19 439.24,222.41C436.99,221.05 432.37,221.17 429.81,220.93C430.42,223.94 435.12,226.31 438,225.76Z" style="fill:white;fill-rule:nonzero;"/>
    </g>
    <g transform="matrix(1,0,0,1,-34.96,-43.43)">
        <path d="M206.75,200C209.01,200.155 211.276,200.195 213.54,200.12C213.76,200.129 213.978,200.077 214.17,199.97C214.367,199.782 214.491,199.531 214.52,199.26L215.33,195.68C215.364,195.363 215.506,195.067 215.73,194.84C216.152,194.605 216.668,194.605 217.09,194.84C219.428,195.717 221.622,196.937 223.6,198.46C222.747,195.88 221.987,193.27 221.32,190.63L227.45,189.55C222.8,188.44 220.45,189 217.45,192.29C215.69,194.18 209.45,200.17 206.75,200Z" style="fill:white;fill-rule:nonzero;"/>
    </g>
    <circle cx="294.92" cy="82.92" r="5.57" style="fill:rgb(86,86,97);"/>
    <path d="M259.22,110.42L294.92,82.92L330.99,110.42" style="fill:none;fill-rule:nonzero;stroke:rgb(86,86,97);stroke-width:1px;"/>
    <g transform="matrix(1,0,0,1,-34.96,-43.43)">
        <path d="M335.59,227.62L336.03,227.9L336.95,227.8L335.59,227.62Z" style="fill:url(#_Linear1);fill-rule:nonzero;"/>
    </g>
    <g transform="matrix(1,0,0,1,-34.96,-43.43)">
        <path d="M337,227.8L344.71,228.8C342.244,227.907 339.612,227.565 337,227.8Z" style="fill:url(#_Linear2);fill-rule:nonzero;"/>
    </g>
    <rect x="322" y="461.24" width="283.43" height="65.63" style="fill:rgb(86,86,97);"/>
    <rect x="322" y="461.24" width="283.43" height="65.63" style="fill-opacity:0.1;"/>
    <path d="M355.91,529.03L357.9,704.24L330.64,773.06L328.53,529.03L355.91,529.03Z" style="fill:rgb(188,190,201);fill-rule:nonzero;"/>
    <path d="M324.99,473.84L600.94,475.5L600.94,524.38L324.99,524.38L324.99,473.84Z" style="fill:rgb(86,86,97);fill-rule:nonzero;"/>
    <path d="M577.33,529.03L600.94,532.36L600.94,770.4L577.33,697.59L577.33,529.03Z" style="fill:rgb(188,190,201);fill-rule:nonzero;"/>
    <rect x="609.91" y="463.87" width="132.99" height="282.6" style="fill:rgb(239,239,240);"/>
    <rect x="620.55" y="471.72" width="111.71" height="217.23" style="fill:rgb(86,86,97);"/>
    <rect x="620.55" y="471.72" width="111.71" height="217.23" style="fill-opacity:0.1;"/>
    <rect x="620.55" y="476.17" width="111.71" height="48.21" style="fill:rgb(86,86,97);"/>
    <rect x="620.55" y="529.03" width="111.71" height="102.4" style="fill:rgb(86,86,97);"/>
    <rect x="620.55" y="637.75" width="111.71" height="102.4" style="fill:rgb(86,86,97);"/>
    <ellipse cx="625.21" cy="755.67" rx="7.2" ry="9.2" style="fill:rgb(86,86,97);"/>
    <ellipse cx="725.06" cy="756.11" rx="7.2" ry="9.2" style="fill:rgb(86,86,97);"/>
    <path d="M321,773.06L330.64,773.06L327.99,466.32L313.35,466.32L321,773.06Z" style="fill:rgb(239,239,240);fill-rule:nonzero;"/>
    <path d="M600.94,463.87L600.94,770.4L609.91,770.4L609.91,466.32L600.94,463.87Z" style="fill:rgb(239,239,240);fill-rule:nonzero;"/>
    <path d="M328.46,521.38L328.46,532.36L600.94,532.36L600.94,524.38L328.46,521.38Z" style="fill:rgb(239,239,240);fill-rule:nonzero;"/>
    <path d="M346.93,443.26L692.37,443.26L742.57,459.88L742.57,469.52L311.69,466.2L311.69,456.39L346.93,443.26Z" style="fill:rgb(239,239,240);fill-rule:nonzero;"/>
    <path d="M311.69,456.39L742.57,459.88L742.57,469.52L311.69,466.2L311.69,456.39Z" style="fill:rgb(188,190,201);fill-rule:nonzero;"/>
    <g transform="matrix(1,0,0,1,-34.96,-43.43)">
        <path d="M460.68,589.14L458.68,588.84L458.68,588.59C458.62,588.12 458.55,587.66 458.48,587.19C459.3,587.84 460.08,588.49 460.8,589.14L460.68,589.14Z" style="fill:url(#_Linear3);fill-rule:nonzero;"/>
    </g>
    <g transform="matrix(1,0,0,1,-34.96,-43.43)">
        <path d="M417.22,743.55C418.52,743.25 419.84,743 421.16,742.82C430.225,741.529 439.472,742.891 447.78,746.74C446.94,752.92 446.11,759.31 447.89,765.28C449.13,769.48 451.62,773.28 452.15,777.66C454.87,778.128 457.101,780.099 457.9,782.74C458.284,783.887 458.476,785.09 458.47,786.3C458.459,787.797 458.271,789.287 457.91,790.74C457.659,793.138 455.514,794.925 453.11,794.74C445.37,795.62 437.78,792.57 430.58,789.58L416.58,783.76C414.94,783.08 413.29,782.39 411.72,781.55C408.742,779.941 406.098,777.779 403.93,775.18C403.484,774.722 403.169,774.152 403.02,773.53C402.76,771.77 404.82,770.72 406.13,769.53C406.514,769.167 406.85,768.757 407.13,768.31C408.68,765.97 408.83,762.74 409.76,759.98C411.96,753.43 418.76,749.21 421.16,742.82C421.29,742.47 421.41,742.12 421.51,741.76" style="fill:rgb(162,101,101);fill-rule:nonzero;"/>
    </g>
    <g transform="matrix(1,0,0,1,-34.96,-43.43)">
        <path d="M458.47,786.3C458.459,787.797 458.271,789.287 457.91,790.74C457.659,793.138 455.514,794.925 453.11,794.74C445.37,795.62 437.78,792.57 430.58,789.58L416.58,783.76C414.94,783.08 413.29,782.39 411.72,781.55C408.742,779.941 406.098,777.779 403.93,775.18C403.484,774.722 403.169,774.152 403.02,773.53C402.76,771.77 404.82,770.72 406.13,769.53C406.514,769.167 406.85,768.757 407.13,768.31C410.99,769.14 415.78,771.57 418.73,772.51C421.685,773.315 424.522,774.501 427.17,776.04C430.85,778.4 433.5,782.04 436.62,785.04C439.74,788.04 443.77,790.77 448.12,790.4C450.42,790.053 452.637,789.287 454.66,788.14L458.47,786.3Z" style="fill-opacity:0.1;fill-rule:nonzero;"/>
    </g>
    <g transform="matrix(1,0,0,1,-34.96,-43.43)">
        <path d="M442.08,644.19C442.611,646.044 441.931,648.044 440.38,649.19C439.07,650 437.38,649.89 436.08,650.77C434.47,651.9 434.24,654.14 433.96,656.08C432.96,662.75 429.65,668.8 426.82,674.93C423.99,681.06 421.6,687.75 422.64,694.41C423.35,698.93 425.57,703.75 423.49,707.82C422.98,708.82 422.22,709.71 421.64,710.68C418.79,715.44 420.41,721.47 420.3,727.01C420.342,727.625 420.206,728.239 419.91,728.78C419.473,729.291 418.935,729.706 418.33,730C416.275,731.511 415.018,733.881 414.92,736.43C414.836,738.948 415.139,741.464 415.82,743.89C415.93,744.869 416.363,745.784 417.05,746.49C417.846,747.016 418.786,747.282 419.74,747.25C426.022,747.759 432.185,749.258 438,751.69C441.79,753.27 445.47,755.25 449.5,756.01C450.287,756.254 451.141,756.164 451.86,755.76C452.367,755.303 452.717,754.697 452.86,754.03C454.41,748.93 455.98,743.67 455.45,738.37C455.22,736.09 454.61,733.86 454.45,731.58C453.75,722.58 459.84,714.46 461.77,705.58C462.64,701.58 462.64,697.44 463.26,693.4C464.94,682.33 471.04,672.4 473.39,661.45C473.717,659.409 474.226,657.401 474.91,655.45C476.66,651.21 480.71,647.77 480.8,643.18C480.856,642.17 480.589,641.169 480.04,640.32C479.097,639.285 477.845,638.584 476.47,638.32C471.01,636.829 465.454,635.719 459.84,635C457.279,634.497 454.666,634.315 452.06,634.46C448.676,634.858 445.424,636.006 442.54,637.82C438.76,640.18 441.24,640.75 442.08,644.19Z" style="fill:rgb(69,75,105);fill-rule:nonzero;"/>
    </g>
    <g transform="matrix(1,0,0,1,-34.96,-43.43)">
        <path d="M442.08,644.19C442.611,646.044 441.931,648.044 440.38,649.19C439.07,650 437.38,649.89 436.08,650.77C434.47,651.9 434.24,654.14 433.96,656.08C432.96,662.75 429.65,668.8 426.82,674.93C423.99,681.06 421.6,687.75 422.64,694.41C423.35,698.93 425.57,703.75 423.49,707.82C422.98,708.82 422.22,709.71 421.64,710.68C418.79,715.44 420.41,721.47 420.3,727.01C420.342,727.625 420.206,728.239 419.91,728.78C419.473,729.291 418.935,729.706 418.33,730C416.275,731.511 415.018,733.881 414.92,736.43C414.836,738.948 415.139,741.464 415.82,743.89C415.93,744.869 416.363,745.784 417.05,746.49C417.846,747.016 418.786,747.282 419.74,747.25C426.022,747.759 432.185,749.258 438,751.69C441.79,753.27 445.47,755.25 449.5,756.01C450.287,756.254 451.141,756.164 451.86,755.76C452.367,755.303 452.717,754.697 452.86,754.03C454.41,748.93 455.98,743.67 455.45,738.37C455.22,736.09 454.61,733.86 454.45,731.58C453.75,722.58 459.84,714.46 461.77,705.58C462.64,701.58 462.64,697.44 463.26,693.4C464.94,682.33 471.04,672.4 473.39,661.45C473.717,659.409 474.226,657.401 474.91,655.45C476.66,651.21 480.71,647.77 480.8,643.18C480.856,642.17 480.589,641.169 480.04,640.32C479.097,639.285 477.845,638.584 476.47,638.32C471.01,636.829 465.454,635.719 459.84,635C457.279,634.497 454.666,634.315 452.06,634.46C448.676,634.858 445.424,636.006 442.54,637.82C438.76,640.18 441.24,640.75 442.08,644.19Z" style="fill-opacity:0.05;fill-rule:nonzero;"/>
    </g>
    <path d="M387.55,751.47L379.02,751.47L373.44,636.83L373.05,630.31L380.3,627.76L380.79,634.69L387.55,751.47Z" style="fill:rgb(86,86,97);fill-rule:nonzero;"/>
    <path d="M380.79,634.69L373.44,636.83L373.05,630.31L380.3,627.76L380.79,634.69Z" style="fill-opacity:0.1;fill-rule:nonzero;"/>
    <path d="M494.58,775.72L480.51,777.42L415.69,630.31L398.21,629.03L367.51,637.99L361.54,813.14L347.47,813.14L353.01,631.59L319.32,632.45L259.2,782.11L246.41,782.11L309.64,607.2L312.08,600.46L406.31,597.23L429.8,610.4L430.1,611.16L494.58,775.72Z" style="fill:rgb(86,86,97);fill-rule:nonzero;"/>
    <g transform="matrix(1,0,0,1,-34.96,-43.43)">
        <path d="M465.06,654.59C444.81,660.69 423.79,667.35 423.79,667.35C423.79,667.35 404.62,674.04 396.5,667.35C395.476,666.551 394.332,665.92 393.11,665.48C394.164,666.233 395.301,666.86 396.5,667.35L344.6,650.62L347.03,643.89L441.27,640.66L464.76,653.83L465.06,654.59Z" style="fill-opacity:0.1;fill-rule:nonzero;"/>
    </g>
    <g transform="matrix(1,0,0,1,-34.96,-43.43)">
        <path d="M369.21,625.56L407.58,617C407.58,617 499.26,634.06 506.08,640.88C506.08,640.88 432.74,655.8 424.64,660.88C416.54,665.96 368.35,671.61 369.21,625.56Z" style="fill:white;fill-rule:nonzero;"/>
    </g>
    <g transform="matrix(1,0,0,1,-34.96,-43.43)">
        <path d="M352.71,529.67C349.71,539.18 341.52,547.75 331.55,548.16C330.825,548.245 330.09,548.113 329.44,547.78C328.19,547 328.16,545.17 328.67,543.78C329.18,542.39 330.07,541.14 330.21,539.68C330.24,539.382 330.22,539.081 330.15,538.79C329.89,537.6 328.92,536.54 327.78,536.79C329.38,535.51 329.75,533.196 328.63,531.48C328.177,530.969 327.769,530.42 327.41,529.84C326.58,528.14 327.87,526.23 328.41,524.41C329.52,520.41 326.7,516.41 326.47,512.24C326.27,508.51 328.16,505 328.63,501.3C329.38,495.3 326.4,489.55 326.05,483.56C325.81,479.38 326.84,475.24 327.99,471.21C328.99,467.61 330.12,463.97 330.19,460.21C330.19,457.48 329.72,454.78 329.59,452.06C329.383,449.574 329.834,447.076 330.9,444.82C331.592,443.494 332.772,442.486 334.19,442.01C337.47,440.91 339.62,442.62 340.1,445.73C340.9,451.02 340.44,456.42 341.49,461.73C342.461,466.696 343.932,471.55 345.88,476.22C347.65,480.44 349.8,484.52 351.16,488.89C352.184,492.492 352.916,496.171 353.35,499.89C354.69,509.88 355.74,520.16 352.71,529.67Z" style="fill:rgb(0,0,128);fill-rule:nonzero;"/>
    </g>
    <g transform="matrix(1,0,0,1,-34.96,-43.43)">
        <path d="M580.47,771.71C577.913,775.315 573.933,777.66 569.54,778.15C565.2,778.69 560.69,777.6 556.48,778.79C555.157,779.008 554.029,779.877 553.48,781.1C553.376,781.913 553.312,782.731 553.29,783.55C552.8,786.22 549.29,786.82 546.56,786.8L535.3,786.73C532.96,786.73 530.37,786.6 528.69,784.98C527.045,783.159 527.002,780.371 528.59,778.5C529.485,778.193 530.09,777.346 530.09,776.4C530.09,775.182 529.088,774.18 527.87,774.18C527.625,774.18 527.382,774.221 527.15,774.3C526.945,772.83 527.016,771.334 527.36,769.89C527.36,765.71 528.36,758.71 531.3,755.44C534.91,751.37 541.17,746.11 546.62,745.02C550.354,744.313 554.21,745.42 557,748C559.58,750.4 561.46,754.16 565,754.58C566.93,754.82 568.79,753.91 570.7,753.58C575.137,753.009 579.48,755.303 581.51,759.29C581.995,760.279 582.332,761.333 582.51,762.42C583.028,765.662 582.299,768.983 580.47,771.71Z" style="fill:rgb(162,101,101);fill-rule:nonzero;"/>
    </g>
    <g transform="matrix(1,0,0,1,-34.96,-43.43)">
        <path d="M580.47,771.71C577.913,775.315 573.933,777.66 569.54,778.15C565.2,778.69 560.69,777.6 556.48,778.79C555.157,779.008 554.029,779.877 553.48,781.1C553.376,781.913 553.312,782.731 553.29,783.55C552.8,786.22 549.29,786.82 546.56,786.8L535.3,786.73C532.96,786.73 530.37,786.6 528.69,784.98C527.045,783.159 527.002,780.371 528.59,778.5C535.09,778.23 541.48,778.5 547.96,777.16C550.59,776.63 553.18,775.93 555.84,775.56C561.6,774.74 567.73,775.44 573.02,773C577.43,771 580.59,766.93 582.46,762.39C583,765.636 582.289,768.968 580.47,771.71Z" style="fill-opacity:0.1;fill-rule:nonzero;"/>
    </g>
    <g transform="matrix(1,0,0,1,-34.96,-43.43)">
        <path d="M550.76,755.9C546.76,759 542.07,761.42 537.03,761.68C531.99,761.94 526.64,759.68 524.17,755.3C520.56,748.87 523.76,739.93 519.34,734.03C517.96,732.18 515.97,730.87 514.51,729.08C513.05,727.29 512.21,724.6 513.51,722.7C511.94,723.3 510.28,721.78 509.82,720.16C509.36,718.54 509.65,716.8 509.37,715.16C508.64,710.81 504.37,708.02 502.32,704.16C500.27,700.3 500.55,695.29 500.32,690.72C499.809,679.588 495.663,668.924 488.52,660.37C487.16,658.75 485.42,657.1 483.3,657.18C483.67,653.52 481.23,650.02 478.07,648.18C474.91,646.34 471.15,645.72 467.49,645.36C430.56,641.72 392.08,655.45 356.82,643.9C347.01,640.69 337.55,635.32 331.55,626.9C326.83,620.429 324.921,612.317 326.26,604.42L326.26,604.28C327.65,597.18 331.4,595.43 337.61,592.19C344.779,588.4 352.272,585.257 360,582.8C375,578.11 391.15,576.42 406.63,579.86C413.86,581.48 420.83,584.16 428.07,585.73C430.92,586.35 433.79,586.79 436.68,587.16C441.17,587.72 445.68,588.09 450.2,588.61C464.653,590.274 478.887,593.476 492.66,598.16C497.79,599.9 502.92,601.89 507.33,605.04C514.39,610.161 519.1,617.914 520.39,626.54C520.81,629.48 520.82,632.54 521.46,635.39C522.066,637.785 522.869,640.127 523.86,642.39C532.405,663.516 539.387,685.241 544.75,707.39C545.054,709.035 545.618,710.622 546.42,712.09C547.7,714.16 549.9,715.55 551.19,717.62C554.19,722.5 551.3,729.31 553.96,734.39C554.88,736.15 556.41,737.54 557.33,739.3C560.31,745 555.88,751.93 550.76,755.9Z" style="fill:rgb(69,75,105);fill-rule:nonzero;"/>
    </g>
    <g transform="matrix(1,0,0,1,-34.96,-43.43)">
        <path d="M499.66,641C501.081,639.875 502.308,638.524 503.29,637C504.275,635.469 504.667,633.629 504.39,631.83C505.18,636.443 503.735,641.168 500.5,644.55C497.99,647.12 493.28,649.64 489.61,648.76C490.13,645.82 497.33,643 499.66,641Z" style="fill-opacity:0.1;fill-rule:nonzero;"/>
    </g>
    <g transform="matrix(1,0,0,1,-34.96,-43.43)">
        <path d="M437.18,591.16C436.567,593.335 434.895,595.06 432.74,595.74C430.608,596.392 428.375,596.653 426.15,596.51L424.15,596.51C397.91,595.93 371.39,590.11 345.76,595.66C342.671,596.297 339.641,597.19 336.7,598.33C332.954,599.807 329.446,601.828 326.29,604.33L326.29,604.19C327.68,597.09 331.43,595.34 337.64,592.1C344.802,588.342 352.285,585.23 360,582.8C375,578.11 391.15,576.42 406.63,579.86C413.86,581.48 420.83,584.16 428.07,585.73C430.92,586.35 433.79,586.79 436.68,587.16C437.24,588.414 437.415,589.807 437.18,591.16Z" style="fill-opacity:0.1;fill-rule:nonzero;"/>
    </g>
    <g transform="matrix(1,0,0,1,-34.96,-43.43)">
        <path d="M437.18,589.73C436.572,591.91 434.899,593.64 432.74,594.32C430.608,594.973 428.375,595.231 426.15,595.08L424.15,595.08C397.91,594.5 371.39,588.68 345.76,594.23C342.672,594.868 339.642,595.758 336.7,596.89C332.777,598.455 329.117,600.613 325.85,603.29C325.083,601.183 324.32,599.073 323.56,596.96C322.64,594.44 325.56,593.88 326.12,591.62C326.49,590.09 325.86,588.35 325.54,586.72C325.458,586.321 325.404,585.917 325.38,585.51C325.2,581.9 326.49,579.82 329.45,577.87C338.23,572.07 348.94,568.09 358.96,565.1C364.287,563.416 369.79,562.349 375.36,561.92C383.24,561.46 391.11,562.92 398.78,564.77C408.21,567.1 417.54,570.18 425.9,575.11C430.01,577.53 434,580.54 436.19,584.79C437.072,586.276 437.421,588.019 437.18,589.73Z" style="fill:rgb(162,101,101);fill-rule:nonzero;"/>
    </g>
    <g transform="matrix(1,0,0,1,-34.96,-43.43)">
        <path d="M352.71,529.67C349.71,539.18 341.52,547.75 331.55,548.16C330.825,548.245 330.09,548.113 329.44,547.78C328.19,547 328.16,545.17 328.67,543.78C329.18,542.39 330.07,541.14 330.21,539.68C330.24,539.382 330.22,539.081 330.15,538.79C335.44,531.33 340.57,523.79 342.6,514.96C343.011,513.44 343.136,511.856 342.97,510.29C342.7,508.49 341.79,506.86 341.29,505.12C340.41,502.04 340.82,498.78 341.07,495.59C342.119,481.527 339.773,467.416 334.23,454.45C332.88,451.33 331.34,448.17 330.87,444.84C331.562,443.514 332.742,442.506 334.16,442.03C337.44,440.93 339.59,442.64 340.07,445.75C340.87,451.04 340.41,456.44 341.46,461.75C342.431,466.716 343.902,471.57 345.85,476.24C347.62,480.46 349.77,484.54 351.13,488.91C352.154,492.512 352.886,496.191 353.32,499.91C354.69,509.88 355.74,520.16 352.71,529.67Z" style="fill-opacity:0.1;fill-rule:nonzero;"/>
    </g>
    <g transform="matrix(1,0,0,1,-34.96,-43.43)">
        <path d="M437.18,589.73C436.572,591.91 434.899,593.64 432.74,594.32C430.608,594.973 428.375,595.231 426.15,595.08L424.15,595.08C415.61,589.408 405.337,586.928 395.15,588.08C391.89,588.47 388.63,589.23 385.37,588.93C378.78,588.33 373.44,583.59 367.57,580.56C353.934,573.827 337.49,576.058 326.14,586.18L325.57,586.68C325.488,586.281 325.434,585.877 325.41,585.47C325.23,581.86 326.52,579.78 329.48,577.83C338.26,572.03 348.97,568.05 358.99,565.06C364.317,563.376 369.82,562.309 375.39,561.88C383.27,561.42 391.14,562.88 398.81,564.73C408.24,567.06 417.57,570.14 425.93,575.07C430.04,577.49 434.03,580.5 436.22,584.75C437.101,586.251 437.44,588.009 437.18,589.73Z" style="fill-opacity:0.1;fill-rule:nonzero;"/>
    </g>
    <g transform="matrix(1,0,0,1,-34.96,-43.43)">
        <path d="M459.61,480.19L459.47,480.55C457.23,486.36 453.11,491.27 450.47,496.93C447.14,504.1 446.32,512.14 445.58,520.02C444.94,526.77 444.31,533.56 444.82,540.33C446.1,557.01 454.25,572.83 456.43,589.19C456.967,592.968 457.105,596.793 456.84,600.6C456.66,603.01 456.22,605.6 454.62,607.38C453.02,609.16 449.91,609.86 448.19,608.15C448.96,606.68 449.74,605.22 450.52,603.75C445.95,600.2 439.07,602.75 433.73,600.53C431.38,599.53 429.5,597.73 427.53,596.12C418.451,588.738 406.765,585.325 395.14,586.66C391.88,587.06 388.62,587.82 385.36,587.52C378.77,586.91 373.43,582.18 367.56,579.15C353.925,572.42 337.484,574.646 326.13,584.76C324.73,586.06 322.85,587.58 321.13,586.76C320.465,586.353 319.928,585.767 319.58,585.07C313.03,573.88 317.85,559.45 324.85,548.55C331.85,537.65 341.12,527.6 344,515C344.416,513.48 344.541,511.896 344.37,510.33C344.1,508.53 343.19,506.9 342.69,505.16C341.81,502.08 342.22,498.82 342.47,495.63C343.519,481.567 341.173,467.456 335.63,454.49C334.03,450.76 332.13,446.98 332.13,442.93C332.13,436.55 336.7,431.26 340.48,426.13C344.83,420.23 348.48,413.7 353.99,408.85C359.21,404.24 366.77,401.42 373.23,403.76C384.208,401.105 395.507,400.014 406.79,400.52C410.69,400.7 414.72,401.11 418.14,403C421.8,405 424.43,408.56 428.03,410.69C430.66,412.26 433.69,413 436.55,414.1C444.45,417.191 450.973,423.035 454.91,430.55C458.91,438.3 459.91,447.21 460.79,455.89C461.65,464 462.45,472.5 459.61,480.19Z" style="fill:rgb(0,0,128);fill-rule:nonzero;"/>
    </g>
    <g transform="matrix(1,0,0,1,-34.96,-43.43)">
        <path d="M444.82,540.33C446.1,557.01 454.25,572.83 456.43,589.19C452.07,585.47 446.02,581.79 445.19,577.5C444.29,572.86 441.41,566.78 440.93,562.09C440.45,557.4 443.74,551.67 440.29,548.45C438.61,546.88 443.08,547.32 441.44,545.71C437.75,542.12 436.84,536.59 436.61,531.46C436.22,522.38 437.37,513.2 435.7,504.27C434.7,498.76 432.61,493.51 430.94,488.16C429,481.93 427.6,475.55 426.2,469.16C424.822,463.479 423.82,457.713 423.2,451.9C422.77,446.9 422.97,441.6 425.2,437.04C427.43,432.48 431.94,428.78 437,428.85C453.92,429.07 451,452.01 454.72,462.61C456.21,466.83 458.22,470.91 459.03,475.31C459.325,477.035 459.486,478.78 459.51,480.53C457.27,486.34 453.15,491.25 450.51,496.91C447.18,504.08 446.36,512.12 445.62,520C444.94,526.77 444.31,533.56 444.82,540.33Z" style="fill-opacity:0.1;fill-rule:nonzero;"/>
    </g>
    <g transform="matrix(1,0,0,1,-34.96,-43.43)">
        <path d="M455.82,462.35C457.31,466.57 459.32,470.65 460.13,475.05C461.48,482.42 459.39,490.25 461.66,497.39C462.251,498.914 462.745,500.474 463.14,502.06C463.53,504.33 463.08,506.65 463.08,508.96C463.08,512.68 464.25,516.28 465.29,519.85C468.806,531.979 471.134,544.421 472.24,557C472.405,560.381 472.938,563.734 473.83,567C474.25,568.107 474.61,569.235 474.91,570.38C475.179,571.908 475.242,573.465 475.1,575.01C474.83,579.91 474.28,584.83 474.83,589.71C475.38,594.59 477.16,599.54 480.83,602.81C477.55,603.52 474.08,604.23 470.88,603.18C466.38,601.71 463.68,597.18 461.39,593.06C458.49,587.8 447.47,583.06 446.33,577.15C445.44,572.52 442.56,566.44 442.08,561.74C441.6,557.04 444.88,551.33 441.43,548.11C439.76,546.54 444.23,546.97 442.58,545.37C438.9,541.78 437.99,536.25 437.76,531.11C437.37,522.04 438.51,512.86 436.85,503.93C435.85,498.42 433.76,493.17 432.09,487.81C430.15,481.59 428.75,475.21 427.35,468.81C425.968,463.13 424.966,457.364 424.35,451.55C423.92,446.55 424.11,441.24 426.35,436.68C428.59,432.12 433.1,428.43 438.15,428.49C455,428.8 452.1,451.75 455.82,462.35Z" style="fill:rgb(0,0,128);fill-rule:nonzero;"/>
    </g>
    <g transform="matrix(1,0,0,1,-34.96,-43.43)">
        <path d="M407.6,466.26C409.18,468.11 411.21,470.14 413.6,469.78C413.225,470.374 412.432,470.563 411.83,470.2C411.256,469.82 410.797,469.291 410.5,468.67L407.08,462.9C406.63,462.15 403.53,457.78 402.77,460.3C402.47,461.37 406.83,465.36 407.6,466.26Z" style="fill-opacity:0.1;fill-rule:nonzero;"/>
    </g>
    <g transform="matrix(1,0,0,1,-34.96,-43.43)">
        <path d="M405.76,480.65C405.662,478.765 404.867,476.982 403.53,475.65C402.328,474.56 400.925,473.714 399.4,473.16C395.65,471.62 391.21,470.38 387.14,470.58C388.62,472.74 393.37,474.03 395.75,475.25C399.123,476.99 402.46,478.79 405.76,480.65Z" style="fill-opacity:0.1;fill-rule:nonzero;"/>
    </g>
    <g transform="matrix(1,0,0,1,-34.96,-43.43)">
        <path d="M416.41,521.61C415.72,526.73 411.53,530.61 407.29,533.61C403.05,536.61 398.29,539.19 395.52,543.53C393.6,546.53 392.74,550.01 391.11,553.14C389.31,556.59 386.62,559.49 384.47,562.73C382.32,565.97 380.64,569.84 381.3,573.68C381.319,574.037 381.486,574.37 381.76,574.6C382.178,574.777 382.66,574.724 383.03,574.46C387.39,572.18 389.11,566.97 390.94,562.46C392.861,557.908 395.024,553.461 397.42,549.14C398.5,547.14 399.69,544.96 401.7,543.85C403.076,543.277 404.485,542.786 405.92,542.38C407.955,541.447 409.74,540.045 411.13,538.29C416.587,531.779 419.439,523.47 419.13,514.98C419.07,513.19 418.97,504.57 416.28,507.23C413.59,509.89 416.87,518.13 416.41,521.61Z" style="fill-opacity:0.1;fill-rule:nonzero;"/>
    </g>
    <g transform="matrix(1,0,0,1,-34.96,-43.43)">
        <path d="M423,325.24C431.6,328.99 439,337.24 438.73,346.59C438.5,356.41 430.28,365.66 433.11,375.07C434.75,380.53 439.69,384.19 443.6,388.34C458.49,404.1 458.46,431.61 443.52,447.34C437.8,453.34 430.45,457.61 424.4,463.34C403.07,483.44 402.16,518.21 413.58,545.2C404.83,547.092 395.912,548.097 386.96,548.2C382.77,548.25 377.64,547.49 376.12,543.58C374.72,539.97 377.12,535.09 374.36,532.42C373.06,531.17 371.11,531 369.36,530.71C358.1,528.89 348.86,519.9 344.64,509.31C340.42,498.72 340.64,486.8 343.06,475.66C344.78,467.61 347.47,458.75 343.48,451.55C338.48,442.49 324.1,438.67 324.32,428.31C324.5,419.82 334.51,415.69 340.19,409.38C350.67,397.76 345.68,379.73 345.66,364.07C345.66,350.29 350.48,336.07 360.74,326.89C376,313.12 405.39,317.59 423,325.24Z" style="fill:rgb(162,101,101);fill-rule:nonzero;"/>
    </g>
    <g opacity="0.1">
        <g transform="matrix(1,0,0,1,-34.96,-43.43)">
            <path d="M345.12,441.28C340.73,433.36 329.2,429.44 326.52,421.65C325.179,423.468 324.426,425.652 324.36,427.91C324.14,438.27 338.5,442.09 343.52,451.16C345.168,454.371 345.862,457.987 345.52,461.58C347.1,454.62 348.49,447.36 345.12,441.28Z" style="fill-rule:nonzero;"/>
        </g>
        <g transform="matrix(1,0,0,1,-34.96,-43.43)">
            <path d="M434.26,362.25C436.06,357 438.67,351.7 438.8,346.25C438.818,345.66 438.802,345.069 438.75,344.48C436.74,350.47 433.66,356.34 434.26,362.25Z" style="fill-rule:nonzero;"/>
        </g>
        <g transform="matrix(1,0,0,1,-34.96,-43.43)">
            <path d="M346.84,390.22C350.28,379.35 347.31,365.87 347.3,353.81C347.3,352.35 347.36,350.88 347.47,349.42C346.285,354.081 345.687,358.871 345.69,363.68C345.71,372.29 347.22,381.63 346.84,390.22Z" style="fill-rule:nonzero;"/>
        </g>
        <g transform="matrix(1,0,0,1,-34.96,-43.43)">
            <path d="M445.19,437.11C439.47,443.11 432.12,447.38 426.07,453.11C415.27,463.28 409.72,477.21 408.33,491.98C410.91,480.98 416.12,470.85 424.47,462.98C430.47,457.28 437.87,453.03 443.59,446.98C450.392,439.567 454.345,429.973 454.74,419.92C453.013,426.345 449.733,432.249 445.19,437.11Z" style="fill-rule:nonzero;"/>
        </g>
        <g transform="matrix(1,0,0,1,-34.96,-43.43)">
            <path d="M388.63,537.94C384.44,537.94 379.31,537.22 377.79,533.31C376.39,529.71 378.79,524.83 376.03,522.15C374.73,520.9 372.77,520.73 371.03,520.44C359.78,518.63 350.54,509.63 346.32,499.05C343.21,491.23 342.54,482.7 343.32,474.28C343.24,474.61 343.17,474.94 343.1,475.28C340.72,486.42 340.47,498.35 344.68,508.94C348.89,519.53 358.14,528.52 369.39,530.33C371.17,530.62 373.13,530.8 374.39,532.04C377.18,534.72 374.75,539.6 376.15,543.2C377.67,547.11 382.8,547.88 386.99,547.83C395.942,547.727 404.86,546.722 413.61,544.83C412.376,541.913 411.298,538.932 410.38,535.9C403.198,537.176 395.924,537.859 388.63,537.94Z" style="fill-rule:nonzero;"/>
        </g>
    </g>
    <g transform="matrix(1,0,0,1,-34.96,-43.43)">
        <path d="M421.38,494.33C423.85,496.19 426.53,489.1 425,487.33C424.59,487.79 421,494.07 421.38,494.33Z" style="fill-opacity:0.1;fill-rule:nonzero;"/>
    </g>
    <g transform="matrix(1,0,0,1,-34.96,-43.43)">
        <path d="M431.91,622.67C434.82,621.67 437.91,620.67 439.81,618.27C441.38,616.34 442.67,608.68 439.35,612.35C436.53,615.48 435.2,619.65 431.91,622.67Z" style="fill-opacity:0.1;fill-rule:nonzero;"/>
    </g>
    <g transform="matrix(1,0,0,1,-34.96,-43.43)">
        <path d="M461.54,614.64C461.19,617 460.54,619.45 458.87,621.15C458.56,621.47 457.87,621.67 457.78,621.24C459.645,620.247 461.379,619.024 462.94,617.6C466.32,614.25 466.78,606 461.63,603.81C461.58,607.43 462.09,611 461.54,614.64Z" style="fill-opacity:0.1;fill-rule:nonzero;"/>
    </g>
    <g transform="matrix(1,0,0,1,-34.96,-43.43)">
        <path d="M497.11,599.77C497.11,599.77 468.73,588.62 458.47,589.77C448.21,590.92 470.09,607.09 470.09,607.09L483.17,615.91C483.17,615.91 491.17,612.91 491.7,612.68C492.23,612.45 497.11,599.77 497.11,599.77Z" style="fill:rgb(69,75,105);fill-rule:nonzero;"/>
    </g>
    <g transform="matrix(1,0,0,1,-34.96,-43.43)">
        <path d="M301.84,480.15C301.84,480.15 323.16,467.79 351.3,483.15C379.44,498.51 384.13,588.9 384.13,588.9C384.13,588.9 372.62,681 417,660.52C417,660.52 498,635.37 506.11,640.91C506.11,640.91 513.79,640.91 498.44,644.32C483.09,647.73 423.82,666.49 423.82,666.49C423.82,666.49 404.65,673.19 396.53,666.49C388.41,659.79 365.4,667.35 362.41,621.29C360.431,592.264 356.873,563.368 351.75,534.73L343.84,511.28L301.84,480.15Z" style="fill:rgb(86,86,97);fill-rule:nonzero;"/>
    </g>
    <g transform="matrix(1,0,0,1,-34.96,-43.43)">
        <path d="M299.28,622.57C299.28,622.57 308.66,529.19 293.28,495.5C279.9,466.14 331.64,479.87 345.14,483.87C347.229,484.495 349.052,485.797 350.32,487.57C358.32,498.82 387.02,543.91 378.56,604.24C378.56,604.24 375.15,657.97 396.47,666.49L330.78,645.33C325.45,643.61 320.04,642.18 314.58,640.94C307.62,639.36 296.28,634.87 299.28,622.57Z" style="fill:white;fill-rule:nonzero;"/>
    </g>
    <g transform="matrix(1,0,0,1,-34.96,-43.43)">
        <path d="M701.86,455.51C701.86,455.51 697.27,476.89 717.7,479.42L718.97,477.05C718.97,477.05 703.13,462.16 701.86,455.51Z" style="fill:rgb(0,0,128);fill-rule:nonzero;"/>
    </g>
    <g transform="matrix(1,0,0,1,-34.96,-43.43)">
        <path d="M725.46,476.88L720.71,477.88L720.24,477.99C720.24,477.99 707.56,467.7 707.72,444.73C709.405,448.11 711.414,451.319 713.72,454.31C718.8,461 724.51,469.83 725.46,476.88Z" style="fill:rgb(0,0,128);fill-rule:nonzero;"/>
    </g>
    <g transform="matrix(1,0,0,1,-34.96,-43.43)">
        <path d="M727.07,479.09C726.311,479.58 725.369,479.701 724.51,479.42C712.31,476.57 716.44,436.83 716.44,436.83C717.11,437.14 717.85,442.19 720.65,448.72C725.58,460.19 731,476.21 727.07,479.09Z" style="fill:rgb(0,0,128);fill-rule:nonzero;"/>
    </g>
    <g transform="matrix(1,0,0,1,-34.96,-43.43)">
        <path d="M754.12,455.51C754.12,455.51 754.91,476.89 734.48,479.42L733.22,477.05C733.22,477.05 752.85,462.16 754.12,455.51Z" style="fill:rgb(0,0,128);fill-rule:nonzero;"/>
    </g>
    <g transform="matrix(1,0,0,1,-34.96,-43.43)">
        <path d="M748.26,444.74C748.42,467.71 732,478 732,478L731.53,477.89L726.78,476.89C727.72,469.84 733.44,460.97 738.45,454.33C741.278,450.71 744.577,447.485 748.26,444.74Z" style="fill:rgb(0,0,128);fill-rule:nonzero;"/>
    </g>
    <g transform="matrix(1,0,0,1,-34.96,-43.43)">
        <path d="M731.4,477C730.664,477.892 729.734,478.604 728.68,479.08C728.359,479.225 728.024,479.336 727.68,479.41C724.68,480.11 723.68,477.95 723.8,474.27C724.08,467.72 728.2,456.37 731.89,447.88C734.55,441.76 738.89,437.12 739.55,436.82C739.55,436.83 739.37,467.77 731.4,477Z" style="fill:rgb(0,0,128);fill-rule:nonzero;"/>
    </g>
    <g transform="matrix(1,0,0,1,-34.96,-43.43)">
        <path d="M728,422.89C728,422.89 714.38,471.19 726.1,478.47C737.82,485.75 731,427.16 728,422.89Z" style="fill:rgb(0,0,128);fill-rule:nonzero;"/>
    </g>
    <g transform="matrix(1,0,0,1,-34.96,-43.43)">
        <path d="M701.86,455.51C701.86,455.51 697.27,476.89 717.7,479.42L718.97,477.05C718.97,477.05 703.13,462.16 701.86,455.51Z" style="fill-opacity:0.1;fill-rule:nonzero;"/>
    </g>
    <g transform="matrix(1,0,0,1,-34.96,-43.43)">
        <path d="M725.46,476.88L720.71,477.88L720.24,477.99C720.24,477.99 707.56,467.7 707.72,444.73C709.405,448.11 711.414,451.319 713.72,454.31C718.8,461 724.51,469.83 725.46,476.88Z" style="fill-opacity:0.1;fill-rule:nonzero;"/>
    </g>
    <g transform="matrix(1,0,0,1,-34.96,-43.43)">
        <path d="M727.07,479.09C726.311,479.58 725.369,479.701 724.51,479.42C712.31,476.57 716.44,436.83 716.44,436.83C717.11,437.14 717.85,442.19 720.65,448.72C725.58,460.19 731,476.21 727.07,479.09Z" style="fill-opacity:0.1;fill-rule:nonzero;"/>
    </g>
    <g transform="matrix(1,0,0,1,-34.96,-43.43)">
        <path d="M754.12,455.51C754.12,455.51 754.91,476.89 734.48,479.42L733.22,477.05C733.22,477.05 752.85,462.16 754.12,455.51Z" style="fill-opacity:0.1;fill-rule:nonzero;"/>
    </g>
    <g transform="matrix(1,0,0,1,-34.96,-43.43)">
        <path d="M748.26,444.74C748.42,467.71 732,478 732,478L731.53,477.89L726.78,476.89C727.72,469.84 733.44,460.97 738.45,454.33C741.278,450.71 744.577,447.485 748.26,444.74Z" style="fill-opacity:0.1;fill-rule:nonzero;"/>
    </g>
    <g transform="matrix(1,0,0,1,-34.96,-43.43)">
        <path d="M731.4,477C730.664,477.892 729.734,478.604 728.68,479.08C728.359,479.225 728.024,479.336 727.68,479.41C724.68,480.11 723.68,477.95 723.8,474.27C724.08,467.72 728.2,456.37 731.89,447.88C734.55,441.76 738.89,437.12 739.55,436.82C739.55,436.83 739.37,467.77 731.4,477Z" style="fill-opacity:0.1;fill-rule:nonzero;"/>
    </g>
    <g transform="matrix(1,0,0,1,-34.96,-43.43)">
        <path d="M728,422.89C728,422.89 714.38,471.19 726.1,478.47C737.82,485.75 731,427.16 728,422.89Z" style="fill-opacity:0.1;fill-rule:nonzero;"/>
    </g>
    <g transform="matrix(1,0,0,1,-34.96,-43.43)">
        <path d="M701.86,455.51C701.86,455.51 699.17,476.89 719.6,479.42L720.87,477.05C720.87,477.05 703.13,462.16 701.86,455.51Z" style="fill:rgb(0,0,128);fill-rule:nonzero;"/>
    </g>
    <g transform="matrix(1,0,0,1,-34.96,-43.43)">
        <path d="M727.36,476.88L722.61,477.88L722.14,477.99C722.14,477.99 707.56,467.7 707.72,444.73C707.72,444.73 711.46,448.73 715.67,454.31C720.7,461 726.41,469.83 727.36,476.88Z" style="fill:rgb(0,0,128);fill-rule:nonzero;"/>
    </g>
    <g transform="matrix(1,0,0,1,-34.96,-43.43)">
        <path d="M727.36,476.88L722.61,477.88C718.11,473.93 716.32,463.61 715.67,454.31C720.7,461 726.41,469.83 727.36,476.88Z" style="fill-opacity:0.1;fill-rule:nonzero;"/>
    </g>
    <g transform="matrix(1,0,0,1,-34.96,-43.43)">
        <path d="M729,479.09C728.241,479.58 727.299,479.701 726.44,479.42C714.24,476.57 716.44,436.83 716.44,436.83C717.11,437.14 719.75,442.19 722.55,448.72C727.48,460.19 732.88,476.21 729,479.09Z" style="fill:rgb(0,0,128);fill-rule:nonzero;"/>
    </g>
    <g transform="matrix(1,0,0,1,-34.96,-43.43)">
        <path d="M754.12,455.51C754.12,455.51 756.81,476.89 736.38,479.42L735.12,477.05C735.12,477.05 752.85,462.16 754.12,455.51Z" style="fill:rgb(0,0,128);fill-rule:nonzero;"/>
    </g>
    <g transform="matrix(1,0,0,1,-34.96,-43.43)">
        <path d="M748.26,444.74C748.42,467.74 733.85,478 733.85,478L733.38,477.89L728.63,476.89C729.57,469.84 735.29,460.97 740.3,454.33C744.53,448.74 748.26,444.74 748.26,444.74Z" style="fill:rgb(0,0,128);fill-rule:nonzero;"/>
    </g>
    <g transform="matrix(1,0,0,1,-34.96,-43.43)">
        <path d="M740.3,454.32C739.69,462.99 738.11,472.54 734.3,477.01C734.03,477.323 733.74,477.617 733.43,477.89L728.68,476.89C729.57,469.83 735.29,461 740.3,454.32Z" style="fill-opacity:0.1;fill-rule:nonzero;"/>
    </g>
    <g transform="matrix(1,0,0,1,-34.96,-43.43)">
        <path d="M733.3,477C732.564,477.892 731.634,478.604 730.58,479.08C730.259,479.225 729.924,479.336 729.58,479.41C726.58,480.11 725.53,477.95 725.7,474.27C725.98,467.72 730.1,456.37 733.79,447.88C736.45,441.76 738.91,437.12 739.55,436.82C739.55,436.83 741.27,467.77 733.3,477Z" style="fill:rgb(0,0,128);fill-rule:nonzero;"/>
    </g>
    <g transform="matrix(1,0,0,1,-34.96,-43.43)">
        <path d="M729,479.09C728.308,479.088 727.634,478.871 727.07,478.47C721.33,474.9 721.22,461.47 722.58,448.72C727.48,460.19 732.88,476.21 729,479.09Z" style="fill-opacity:0.1;fill-rule:nonzero;"/>
    </g>
    <g transform="matrix(1,0,0,1,-34.96,-43.43)">
        <path d="M733.3,477C732.64,478.42 731.75,479.18 730.58,479.08C729.997,478.998 729.44,478.786 728.95,478.46C727.46,477.436 726.326,475.97 725.71,474.27C725.99,467.72 730.11,456.37 733.8,447.88C735.11,459.68 735.55,472.17 733.3,477Z" style="fill-opacity:0.1;fill-rule:nonzero;"/>
    </g>
    <g transform="matrix(1,0,0,1,-34.96,-43.43)">
        <path d="M728,422.89C728,422.89 716.28,471.19 728,478.47C739.72,485.75 731,427.16 728,422.89Z" style="fill:rgb(0,0,128);fill-rule:nonzero;"/>
    </g>
    <path d="M711.41,437.42L710.59,441.69L707.61,457.37L679.25,457.37L676.27,441.69L675.45,437.42L711.41,437.42Z" style="fill:rgb(86,86,97);fill-rule:nonzero;"/>
    <path d="M711.41,437.42L710.59,441.69L676.27,441.69L675.45,437.42L711.41,437.42Z" style="fill-opacity:0.1;fill-rule:nonzero;"/>
    <rect x="668.65" y="432.67" width="48.77" height="8.08" style="fill:rgb(86,86,97);"/>
    <g transform="matrix(1,0,0,1,-34.96,-43.43)">
        <path d="M587.73,491.61L561,493.76L522.91,491.28L523.57,491.22L558.85,487.82C566.93,484.82 561.33,467.37 561.33,467.37L588.33,468.75L590.48,468.86C600.09,491.28 587.73,491.61 587.73,491.61Z" style="fill:rgb(209,217,236);fill-rule:nonzero;"/>
    </g>
    <g transform="matrix(1,0,0,1,-34.96,-43.43)">
        <path d="M587.73,491.61L561,493.76L522.91,491.28L523.57,491.22L562.07,492.6L587.87,489.8C595.19,487.87 591,475.16 588.36,468.75L590.51,468.86C600.09,491.28 587.73,491.61 587.73,491.61Z" style="fill-opacity:0.1;fill-rule:nonzero;"/>
    </g>
    <g transform="matrix(1,0,0,1,-34.96,-43.43)">
        <path d="M634.5,332.81L626.33,450L625.26,465.39C625.013,468.886 622.055,471.624 618.55,471.6L616.07,471.6L493.07,470.85C491.186,470.837 489.643,469.284 489.643,467.4C489.643,467.287 489.649,467.173 489.66,467.06L490.72,456.67L499.37,371.61C499.651,368.867 501.499,366.524 504.1,365.61L621.33,325.02C625.33,323.64 629.33,324.13 631.92,326.24C633.822,327.859 634.792,330.329 634.5,332.81Z" style="fill:rgb(76,76,86);fill-rule:nonzero;"/>
    </g>
    <g transform="matrix(1,0,0,1,-34.96,-43.43)">
        <path d="M626.33,450L625.26,465.39C625.013,468.886 622.055,471.624 618.55,471.6L616.07,471.6L493.07,470.85C491.186,470.837 489.643,469.284 489.643,467.4C489.643,467.287 489.649,467.173 489.66,467.06L490.72,456.67L626.33,450Z" style="fill:rgb(223,230,245);fill-rule:nonzero;"/>
    </g>
    <ellipse cx="508.91" cy="419.33" rx="1.65" ry="3.3" style="fill:white;"/>
    <g transform="matrix(1,0,0,1,-34.96,-43.43)">
        <path d="M604.08,495.47C604.08,495.47 637.72,482.77 646.79,492.01C646.79,492.01 648.27,494.81 642.17,495.47L617.52,497.47C617.52,497.47 607.38,498.44 604.08,495.47Z" style="fill:rgb(209,217,236);fill-rule:nonzero;"/>
    </g>
    <g transform="matrix(1,0,0,1,-34.96,-43.43)">
        <path d="M605,492.17C611.61,489.47 631.5,482.48 644.23,490.17C644.23,490.17 630.14,488.61 622.41,493.08C614.68,497.55 604.1,495.43 604.1,495.43L603.95,495.15C603.781,494.838 603.692,494.489 603.692,494.135C603.692,493.278 604.21,492.501 605,492.17Z" style="fill:rgb(223,230,245);fill-rule:nonzero;"/>
    </g>
    <g transform="matrix(1,0,0,1,-34.96,-43.43)">
        <path d="M634.5,332.81L625.26,465.41C625.013,468.906 622.055,471.644 618.55,471.62L616.07,471.62C617.774,469.993 619.224,468.118 620.37,466.06C621.516,464.002 629.44,332.84 630.1,329.54C630.394,328.304 631.028,327.175 631.93,326.28C633.816,327.893 634.781,330.344 634.5,332.81Z" style="fill:rgb(223,230,245);fill-rule:nonzero;"/>
    </g>
    <g transform="matrix(1,0,0,1,-34.96,-43.43)">
        <path d="M634.5,332.81L625.26,465.41C625.013,468.906 622.055,471.644 618.55,471.62L616.07,471.62C617.774,469.993 619.224,468.118 620.37,466.06C621.516,464.002 629.44,332.84 630.1,329.54C630.394,328.304 631.028,327.175 631.93,326.28C633.816,327.893 634.781,330.344 634.5,332.81Z" style="fill-opacity:0.1;fill-rule:nonzero;"/>
    </g>
    <ellipse cx="148.97" cy="730.07" rx="97.44" ry="15.65" style="fill:rgb(0,0,128);fill-opacity:0.1;"/>
    <rect x="145.83" y="430.26" width="6.27" height="141.17" style="fill:rgb(83,84,97);"/>
    <g transform="matrix(1,0,0,1,-34.96,-43.43)">
        <path d="M226.47,614.43L226.08,620.79L225.52,629.79L225.29,633.53L224.74,642.53L224.5,646.27L223.94,655.27L217.62,757.34C217.053,766.404 209.441,773.557 200.36,773.56L167.49,773.56C158.413,773.556 150.807,766.4 150.25,757.34L143.91,655.2L143.36,646.2L143.13,642.46L142.56,633.46L142.33,629.72L141.78,620.72L141.38,614.36C141.37,614.19 141.366,614.02 141.366,613.85C141.366,608.93 145.4,604.875 150.32,604.85L217.54,604.85C222.458,604.878 226.489,608.932 226.489,613.85C226.489,614.043 226.482,614.237 226.47,614.43Z" style="fill:rgb(86,86,97);fill-rule:nonzero;"/>
    </g>
    <path d="M191.12,577.36L190.56,586.33L107.38,586.33L106.82,577.36L191.12,577.36Z" style="fill:rgb(157,156,181);fill-rule:nonzero;"/>
    <path d="M190.33,590.08L189.78,599.06L108.17,599.06L107.61,590.08L190.33,590.08Z" style="fill:rgb(157,156,181);fill-rule:nonzero;"/>
    <path d="M189.54,602.8L188.98,611.77L108.95,611.77L108.4,602.8L189.54,602.8Z" style="fill:rgb(157,156,181);fill-rule:nonzero;"/>
    <g transform="matrix(1,0,0,1,-34.96,-43.43)">
        <path d="M132.2,526.6C168.72,553.02 183.93,594.34 183.93,594.34C183.93,594.34 139.93,592.83 103.4,566.41C66.87,539.99 51.68,498.68 51.68,498.68C51.68,498.68 95.69,500.19 132.2,526.6Z" style="fill:rgb(0,0,128);fill-rule:nonzero;"/>
    </g>
    <g transform="matrix(1,0,0,1,-34.96,-43.43)">
        <path d="M51.68,498.68C51.68,498.68 97.35,524 112,545C126.65,566 183.92,594.32 183.92,594.32" style="fill:none;fill-rule:nonzero;stroke:rgb(83,84,97);stroke-width:2px;"/>
    </g>
    <g transform="matrix(1,0,0,1,-34.96,-43.43)">
        <path d="M155.77,473.38C175.65,487.75 183.93,510.25 183.93,510.25C183.93,510.25 159.93,509.42 140.1,495.05C120.27,480.68 112,458.18 112,458.18C112,458.18 135.9,459 155.77,473.38Z" style="fill:rgb(0,0,128);fill-rule:nonzero;"/>
    </g>
    <g transform="matrix(1,0,0,1,-34.96,-43.43)">
        <path d="M112,458.18C112,458.18 136.86,471.98 144.83,483.4C152.8,494.82 183.98,510.25 183.98,510.25" style="fill:none;fill-rule:nonzero;stroke:rgb(83,84,97);stroke-width:2px;"/>
    </g>
    <g transform="matrix(1,0,0,1,-34.96,-43.43)">
        <path d="M212.81,509.1C190,534.19 185.15,567 185.15,567C185.15,567 217.34,559.1 240.15,534C262.96,508.9 267.81,476.12 267.81,476.12C267.81,476.12 235.64,484 212.81,509.1Z" style="fill:rgb(0,0,128);fill-rule:nonzero;"/>
    </g>
    <g transform="matrix(1,0,0,1,-34.96,-43.43)">
        <path d="M267.83,476.11C267.83,476.11 238.09,501.83 230.53,519.55C222.97,537.27 185.15,567 185.15,567" style="fill:none;fill-rule:nonzero;stroke:rgb(83,84,97);stroke-width:2px;"/>
    </g>
    <g opacity="0.87">
        <g transform="matrix(1,0,0,1,-34.96,-43.43)">
            <path d="M853.86,200.46C850.02,196.55 845.96,192.2 845.2,186.54C844.61,182.16 846.2,177.73 848.36,173.99C850.52,170.25 853.36,166.99 855.75,163.39C858.75,158.76 861.03,153.55 864.43,149.23C869.68,142.56 877.33,138.54 885.19,136.49C893.05,134.44 901.19,134.19 909.29,133.95C915.77,133.76 922.36,133.59 928.62,135.4C933.2,136.72 937.47,139.07 941.68,141.4C947.59,144.69 953.57,148.09 958.34,153.11C963.042,158.119 966.316,164.297 967.82,171C969.52,178.37 969.03,186.52 965.53,193.1C963.968,195.827 962.15,198.398 960.1,200.78L953.94,208.39C952.655,210.136 951.126,211.689 949.4,213C947.197,214.318 944.758,215.194 942.22,215.58C924.966,219.242 907.379,221.112 889.74,221.16C883.37,221.16 878.22,217.66 872.35,215.16C865.19,212 859.41,206.1 853.86,200.46Z" style="fill:rgb(69,75,105);fill-rule:nonzero;"/>
        </g>
        <g transform="matrix(1,0,0,1,-34.96,-43.43)">
            <path d="M859.79,200.46C856.15,196.55 852.3,192.2 851.57,186.54C851.02,182.16 852.49,177.73 854.57,173.99C856.65,170.25 859.34,166.99 861.57,163.39C864.44,158.76 866.57,153.55 869.8,149.23C874.8,142.56 882.04,138.54 889.5,136.49C896.96,134.44 904.69,134.19 912.35,133.95C918.5,133.76 924.74,133.59 930.68,135.4C935.03,136.72 939.07,139.07 943.07,141.4C948.67,144.69 954.35,148.09 958.87,153.11C963.36,158.175 966.461,164.319 967.87,170.94C969.48,178.31 969.01,186.46 965.7,193.04C964.224,195.754 962.5,198.325 960.55,200.72L954.7,208.33C953.498,210.07 952.05,211.626 950.4,212.95C948.327,214.261 946.011,215.138 943.59,215.53C927.252,219.19 910.563,221.061 893.82,221.11C887.82,221.11 882.9,217.61 877.33,215.11C870.54,212 865.05,206.1 859.79,200.46Z" style="fill-opacity:0.1;fill-rule:nonzero;"/>
        </g>
        <g transform="matrix(1,0,0,1,-34.96,-43.43)">
            <path d="M860.13,138.53C864.597,133.788 869.317,129.292 874.27,125.06C881.6,118.78 890.41,112.68 900.86,112.27C907.159,112.197 913.368,113.784 918.86,116.87C924.25,119.76 928.86,123.53 933.46,127.27L951.63,142.13C953.15,143.37 954.74,144.72 955.14,146.46C955.181,146.664 955.201,146.872 955.201,147.08C955.201,148.825 953.766,150.26 952.021,150.26C952.017,150.26 952.014,150.26 952.01,150.26C951.074,150.134 950.18,149.792 949.4,149.26C924.955,136.092 895.655,135.282 870.52,147.08C867.45,148.54 861.52,153.82 858.39,151.68C853.92,148.59 857.41,141.41 860.13,138.53Z" style="fill:rgb(69,75,105);fill-rule:nonzero;"/>
        </g>
        <g transform="matrix(1,0,0,1,-34.96,-43.43)">
            <path d="M933.78,196.61C921.78,193.74 908.87,193.83 896.22,193.95C887.65,194.03 878.72,194.17 871.09,196.89C865.86,198.76 861.18,202.49 862.17,206.52C863.16,210.55 868.87,212.84 874.01,214.66C885.01,218.56 896.83,222.56 909.01,221.43C921.63,220.27 962.9,203.6 933.78,196.61Z" style="fill-opacity:0.1;fill-rule:nonzero;"/>
        </g>
        <g transform="matrix(1,0,0,1,-34.96,-43.43)">
            <path d="M869.4,199.41C864.47,199.41 863.19,206.29 864.01,211.14C864.83,215.99 865.31,222.47 860.76,224.35C859.2,224.823 857.564,224.993 855.94,224.85C844.94,224.9 835.14,231.45 826.1,237.74C824.55,238.83 822.92,240 822.18,241.74C821.64,243.01 821.59,244.51 820.7,245.55C819.753,246.412 818.574,246.978 817.31,247.18C806.623,250.523 799.301,260.492 799.31,271.69C787.91,275.54 780.11,288.02 781.66,299.95C773.313,302.67 767.899,310.854 768.66,319.6C758.91,324.05 754.47,337.39 759.66,346.79C761.47,350.09 764.12,354.52 761.3,357.01C764.77,361.71 768.55,366.65 774.04,368.64C779.53,370.63 787.04,367.98 787.94,362.21C790.333,363.507 793.013,364.186 795.735,364.186C804.709,364.186 812.095,356.801 812.095,347.826C812.095,347.24 812.063,346.653 812,346.07C820.36,344.76 826,334.65 822.82,326.82L831.17,323.12C826.613,328.733 826.005,336.626 829.65,342.87C830.51,343.984 831.13,345.264 831.47,346.63C831.79,349.04 829.89,351.1 828.47,353.12C824.863,358.652 824.747,365.793 828.17,371.44C829.17,373.08 830.55,374.66 830.64,376.59C830.74,378.89 829.03,380.81 827.91,382.82C822.91,391.77 829.82,402.45 836.34,410.32C828.12,418.47 831.6,433.56 840.72,440.69C849.84,447.82 862.31,448.76 873.86,447.96C885.41,447.16 897.03,444.96 908.46,446.77C914.46,447.77 920.2,449.83 926.2,450.62C936.5,451.98 946.94,449.46 956.72,445.96C962.02,444.06 967.72,441.41 969.95,436.25C972.47,430.45 969.73,423.83 969.61,417.51C969.43,408.03 975.2,399.42 976.41,390.01C977.15,384.25 976.16,378.44 975.41,372.69C973.291,356.412 973.119,339.939 974.9,323.62L977.9,328.18C978.013,328.196 978.127,328.205 978.241,328.205C979.547,328.205 980.621,327.13 980.621,325.825C980.621,325.803 980.621,325.782 980.62,325.76C981.21,331.98 976.76,340.17 982.12,343.39C983.7,344.39 985.65,344.39 987.44,344.8C990.83,345.79 993.738,347.999 995.6,351C998.4,355.18 999.6,360.34 1002.86,364.22C1006.12,368.1 1012.77,369.98 1015.93,366.05C1025.67,366.2 1035.12,362.686 1042.39,356.21C1040.72,354.201 1039.97,351.579 1040.32,348.99C1046.41,349.07 1048.97,340.59 1046.72,334.92C1044.47,329.25 1039.57,324.92 1037.36,319.26C1035.36,314.13 1035.59,308.01 1032.14,303.71C1030.51,301.66 1028.14,300.25 1026.63,298.13C1024.74,295.54 1024.25,292.23 1023.35,289.13C1020.88,280.785 1015.25,273.724 1007.66,269.46C1009.87,259.15 1002.66,248.78 992.4,246.2C991.224,245.99 990.074,245.655 988.97,245.2C985.24,243.34 984.54,238.42 982.3,234.9C978.73,229.28 971.44,227.59 964.89,226.39L945.11,222.73C943.953,222.625 942.848,222.199 941.92,221.5C941.137,220.656 940.664,219.569 940.58,218.42C939.76,212.69 942.58,206.96 942.14,201.19C941.99,199.46 941.22,197.42 939.51,197.13C938.584,197.077 937.663,197.296 936.86,197.76C929.936,200.708 922.769,203.05 915.44,204.76C910.069,206.264 904.562,207.229 899,207.64C888.34,208.16 878,205.74 869.4,199.41Z" style="fill:rgb(69,75,105);fill-rule:nonzero;"/>
        </g>
        <g transform="matrix(1,0,0,1,-34.96,-43.43)">
            <path d="M946.71,147.06C949.58,145.06 952.53,142.9 954.52,139.6C956.51,136.3 957.28,131.48 955.52,128.03C957.89,132.11 960.01,136.79 959.92,141.85C959.83,146.91 956.74,152.14 952.71,152.06C955.71,151.81 958.95,151.44 961.22,148.96C963.49,146.48 963.9,141.1 961.22,139.33C963.725,142.165 964.85,145.969 964.29,149.71C963.74,153.52 961.46,156.86 958.54,158.11C961.1,151.43 968.54,148.63 973.64,152.46C968.879,154.592 965.008,158.321 962.7,163C965.79,160.69 970.09,158.54 972.61,161.75C967.74,162.75 963.25,166.39 960.61,171.62C965.64,170.97 970.723,170.84 975.78,171.23C970.175,172.616 965.244,175.957 961.88,180.65C965.577,181.7 969.199,183 972.72,184.54C969.844,186.035 966.616,186.727 963.38,186.54C969.38,190.88 973.66,198.72 974.72,207.29C972.647,205.243 970.322,203.468 967.8,202.01C965.8,200.88 963.46,200.01 961.57,201.33C959.68,202.65 959.52,207.07 961.65,207.6L952.97,206.97C955.946,209.078 957.894,212.35 958.33,215.97C956.652,215.839 955.028,215.315 953.59,214.44C957.327,217.828 960.169,222.088 961.86,226.84C958.3,224.06 954.46,221.18 950.27,221.29C947.2,221.37 944.27,223.06 941.27,223.58C935.87,224.51 930.15,221.38 927.01,215.78C930.676,215.224 934.416,215.407 938.01,216.32C937.41,212.334 936.36,208.429 934.88,204.68C936.936,206.029 938.72,207.752 940.14,209.76C940.729,204.499 940.621,199.183 939.82,193.95L944.38,198.68C943.938,195.162 943.131,191.7 941.97,188.35C944.218,192.605 947.22,196.417 950.83,199.6L944.1,187.96L955.21,196C956.36,195.07 955.49,192.82 954.52,191.61C951.542,187.874 948.066,184.563 944.19,181.77C947.243,182.238 950.218,183.123 953.03,184.4C951.82,178.14 946.56,173.55 941.46,174.31C945.216,172.065 949.404,170.64 953.75,170.13C949.4,166.74 943.75,163.36 939.5,167.03C943.565,166.067 947.493,164.595 951.19,162.65C948.987,159.941 945.196,159.068 942.03,160.54C939.03,162.05 936.75,165.84 936.49,169.93C936.34,164.05 939.86,158.34 944.49,157.03C942.7,156.12 940.84,155.19 938.91,155.34C936.722,155.575 934.971,157.305 934.71,159.49C935.25,155.818 936.482,152.283 938.34,149.07C935.8,147.74 932.73,149.67 931.34,152.64C929.95,155.61 929.9,159.29 930.34,162.7C930.775,155.352 930.44,147.978 929.34,140.7C928.175,146.435 927.812,152.305 928.26,158.14" style="fill:rgb(0,0,128);fill-rule:nonzero;"/>
        </g>
        <rect x="864.03" y="164.21" width="6.78" height="238.77" style="fill:white;fill-opacity:0.2;"/>
        <ellipse cx="927.82" cy="740.15" rx="159.04" ry="34.89" style="fill:rgb(0,0,128);fill-opacity:0.1;"/>
        <rect x="943.96" y="91.48" width="11.71" height="676.79" style="fill:rgb(86,86,97);"/>
        <ellipse cx="949.82" cy="132.45" rx="52.67" ry="8.51" style="fill:none;stroke:rgb(86,86,97);stroke-width:9px;"/>
        <g transform="matrix(1,0,0,1,-34.96,-43.43)">
            <path d="M915.34,131.3C905.667,133.7 898.82,142.453 898.82,152.42C898.82,158.093 901.039,163.548 905,167.61C911.13,173.9 920.3,175.88 928.85,177.88C945.26,181.72 962.85,187.74 971.73,202.05C977.419,211.367 978.572,222.784 974.86,233.05C974.025,235.571 972.641,237.876 970.81,239.8C968.498,241.815 965.765,243.288 962.81,244.11C949.518,248.513 935.218,248.896 921.71,245.21" style="fill:none;fill-rule:nonzero;stroke:rgb(86,86,97);stroke-width:9px;"/>
        </g>
        <g transform="matrix(1,0,0,1,-34.96,-43.43)">
            <path d="M1052.35,131.3C1062.02,133.707 1068.86,142.461 1068.86,152.425C1068.86,158.095 1066.64,163.547 1062.69,167.61C1056.56,173.9 1047.39,175.88 1038.84,177.88C1022.43,181.72 1004.84,187.74 995.96,202.05C990.271,211.367 989.118,222.784 992.83,233.05C993.651,235.567 995.017,237.872 996.83,239.8C999.142,241.815 1001.88,243.288 1004.83,244.11C1018.12,248.513 1032.42,248.896 1045.93,245.21" style="fill:none;fill-rule:nonzero;stroke:rgb(86,86,97);stroke-width:9px;"/>
        </g>
        <ellipse cx="949.82" cy="527.24" rx="48.95" ry="13.83" style="fill:none;stroke:rgb(86,86,97);stroke-width:9px;"/>
        <ellipse cx="949.82" cy="701.04" rx="48.95" ry="13.83" style="fill:none;stroke:rgb(86,86,97);stroke-width:9px;"/>
        <g transform="matrix(1,0,0,1,-34.96,-43.43)">
            <path d="M937.32,574.88C956.45,593.002 969.723,616.443 975.42,642.17C976.52,646.88 977.189,651.679 977.42,656.51C977.8,667.51 975.01,678.43 971.42,688.86C964.65,708.6 954.59,727.78 938.81,741.42C924.65,753.66 906.81,760.69 889.06,766.63" style="fill:none;fill-rule:nonzero;stroke:rgb(86,86,97);stroke-width:9px;"/>
        </g>
        <g transform="matrix(1,0,0,1,-34.96,-43.43)">
            <path d="M1032.23,574.88C1013.1,593.002 999.827,616.443 994.13,642.17C993.035,646.88 992.366,651.68 992.13,656.51C991.75,667.51 994.54,678.43 998.13,688.86C1004.89,708.6 1014.95,727.78 1030.74,741.42C1044.89,753.66 1062.74,760.69 1080.48,766.63" style="fill:none;fill-rule:nonzero;stroke:rgb(86,86,97);stroke-width:9px;"/>
        </g>
        <rect x="840.75" y="82.48" width="25.94" height="10.61" style="fill:rgb(69,75,105);"/>
        <g transform="matrix(1,0,0,1,-34.96,-43.43)">
            <path d="M932.25,158.19L927,143.54C926.524,141.825 925.662,140.241 924.48,138.91C923.24,137.76 921.23,137.49 920.14,138.84C921.949,141.281 923.384,143.977 924.4,146.84C925.31,149.84 925.31,153.32 923.74,155.84C922.898,147.445 919.296,139.562 913.5,133.43C915.592,137.718 917.311,142.178 918.64,146.76L911.49,138.35C909.953,144.719 909.987,151.367 911.59,157.72C907.665,152.858 905.478,146.818 905.38,140.57C905.325,143.222 904.786,145.842 903.79,148.3C901.812,146 900.744,143.053 900.79,140.02C897.067,145.705 896.017,152.746 897.92,159.27C894.492,153.676 892.633,147.26 892.54,140.7C890.381,147.289 889.782,154.29 890.79,161.15C886.7,156.615 884.19,150.872 883.64,144.79C883.779,151.03 884.788,157.22 886.64,163.18C883.33,162.25 881.48,158.33 879.72,154.96C877.96,151.59 875.18,148.05 871.81,148.66C874.937,152.091 876.828,156.471 877.18,161.1C875.55,160.88 874.32,159.2 872.72,158.81C870.46,158.27 868.18,160.97 868.54,163.59C868.9,166.21 871.59,167.97 873.78,167.16C870.631,165.865 866.993,166.597 864.59,169.01C862.014,171.716 860.86,175.485 861.48,179.17C862.78,175.39 866.71,173.1 870.12,174.17C864.89,174.93 860.48,180.38 860.12,186.44C861.4,185.55 862.01,183.82 863.06,182.6C864.11,181.38 866.22,180.94 866.85,182.5C867.064,183.268 867.043,184.084 866.79,184.84L864.12,196.5L877.7,190.57C876.839,196.087 875.128,201.437 872.63,206.43L880.31,203.91C877.08,207.278 874.907,211.521 874.06,216.11C874.85,212.01 880.14,208.68 883.44,208.87C884.08,215.26 880.81,219.93 875.44,220.31C867.77,220.86 860.88,219.53 853.28,222.22C856.332,217.865 861.564,215.55 866.84,216.22C862.97,210.81 856.04,208.63 850.32,211.04C852.474,207.879 856.096,206.023 859.92,206.12C857.3,201.76 851.73,200.21 847.67,202.71C849.267,199.681 851.86,197.292 855.01,195.95C852.11,193.39 848.01,193.19 844.55,194.39C841.09,195.59 837.98,198.01 834.98,200.39C833.931,197.373 834.54,194.017 836.58,191.56C838.5,189.369 841.691,188.764 844.28,190.1C843.04,186.4 839.49,183.93 836.08,184.38C838.161,181.382 842.025,180.146 845.46,181.38C845.592,176.677 843.582,172.16 840,169.11C842.573,169.849 844.837,171.404 846.45,173.54C847.218,170.09 846.534,166.472 844.56,163.54C842.649,160.86 840.327,158.497 837.68,156.54C842.942,154.947 848.564,154.974 853.81,156.62L849.21,140.26L858.48,151.92C857.431,145.981 857.122,139.935 857.56,133.92C858.762,138.195 860.595,142.267 863,146C862.307,140.516 861.913,134.997 861.82,129.47C861.82,128.06 861.92,126.37 862.99,125.68C864.06,124.99 865.25,125.68 865.99,126.68C866.608,127.781 867.05,128.972 867.3,130.21C868.382,134.096 870.522,137.607 873.48,140.35C873.578,134.572 876.124,129.098 880.48,125.3C880.546,129.752 881.147,134.181 882.27,138.49C879.27,138.3 877.6,133.97 878.49,130.69C879.38,127.41 881.94,125.14 884.49,123.36C887.04,121.58 889.79,119.96 891.59,117.23C890.982,123.631 891.415,130.088 892.87,136.35C893.81,132.03 893.75,127.46 894.96,123.23C896.17,119 899.25,114.95 903.1,115.08C901.503,117.332 900.259,119.813 899.41,122.44C898.66,125.15 898.78,128.35 900.33,130.57C900.88,126.57 901.45,122.46 903,118.8C904.55,115.14 907.23,111.9 910.67,110.98C908.711,117.788 909.224,125.075 912.12,131.54C912.12,125.72 913.74,119.16 918.25,116.54C916.155,119.983 915.696,124.186 917,128C916.873,122.607 918.259,117.285 921,112.64C920.996,119.389 922.122,126.092 924.33,132.47C926.938,126.859 930.555,121.774 935,117.47C933.993,123.888 934.637,130.459 936.87,136.56C936.601,133.758 936.716,130.932 937.21,128.16C937.84,125.44 939.38,122.84 941.67,121.87L942.1,140.77C946.93,138.03 948.56,129.77 945.25,124.9C949.15,127.22 953.25,129.79 955.4,134.21C957.55,138.63 956.53,145.44 952.4,147.05" style="fill:rgb(0,0,128);fill-rule:nonzero;"/>
        </g>
        <path d="M873.54,94.61C873.54,100.135 869.055,104.62 863.53,104.62L857.55,104.62C852.025,104.62 847.54,100.135 847.54,94.61C847.54,89.085 852.025,84.6 857.55,84.6L863.53,84.6C869.055,84.6 873.54,89.085 873.54,94.61Z" style="fill:rgb(0,0,128);"/>
    </g>
    <defs>
        <linearGradient id="_Linear1" x1="0" y1="0" x2="1" y2="0" gradientUnits="userSpaceOnUse" gradientTransform="matrix(1.36,0,0,1.36,335.59,227.76)"><stop offset="0" style="stop-color:rgb(128,128,128);stop-opacity:0.25"/><stop offset="0.54" style="stop-color:rgb(128,128,128);stop-opacity:0.12"/><stop offset="1" style="stop-color:rgb(128,128,128);stop-opacity:0.1"/></linearGradient>
        <linearGradient id="_Linear2" x1="0" y1="0" x2="1" y2="0" gradientUnits="userSpaceOnUse" gradientTransform="matrix(59.4441,0,0,59.4441,2934.88,472.421)"><stop offset="0" style="stop-color:rgb(128,128,128);stop-opacity:0.25"/><stop offset="0.54" style="stop-color:rgb(128,128,128);stop-opacity:0.12"/><stop offset="1" style="stop-color:rgb(128,128,128);stop-opacity:0.1"/></linearGradient>
        <linearGradient id="_Linear3" x1="0" y1="0" x2="1" y2="0" gradientUnits="userSpaceOnUse" gradientTransform="matrix(5.3824,0,0,5.3824,1521.99,1734.12)"><stop offset="0" style="stop-color:rgb(128,128,128);stop-opacity:0.25"/><stop offset="0.54" style="stop-color:rgb(128,128,128);stop-opacity:0.12"/><stop offset="1" style="stop-color:rgb(128,128,128);stop-opacity:0.1"/></linearGradient>
    </defs>
</svg>
