<?xml version="1.0" encoding="UTF-8" standalone="no"?>
<!DOCTYPE svg PUBLIC "-//W3C//DTD SVG 1.1//EN" "http://www.w3.org/Graphics/SVG/1.1/DTD/svg11.dtd">
<svg width="100%" height="100%" viewBox="0 0 1036 628" version="1.1" xmlns="http://www.w3.org/2000/svg" xmlns:xlink="http://www.w3.org/1999/xlink" xml:space="preserve" xmlns:serif="http://www.serif.com/" style="fill-rule:evenodd;clip-rule:evenodd;stroke-miterlimit:10;">
    <g transform="matrix(1,0,0,1,-82.26,-136.182)">
        <path d="M769.26,350.83L418.423,136.182L365.035,223.443C383.754,235.602 395.08,256.463 395.08,278.785C395.08,314.986 365.291,344.775 329.089,344.775C317.54,344.775 306.191,341.743 296.18,335.984L278.855,364.301L426.74,364.301L426.74,543.374L787.05,763.818L862.461,640.561L769.26,640.561L769.26,350.83Z" style="fill:rgb(242,242,242);fill-rule:nonzero;"/>
    </g>
    <ellipse cx="514.424" cy="470.263" rx="63.537" ry="9.822" style="fill:rgb(0,0,128);"/>
    <g transform="matrix(1,0,0,1,-82.26,-136.182)">
        <path d="M598.74,519.461L662.758,446.227C672.077,436.7 677.3,423.89 677.3,410.564C677.3,382.586 654.278,359.564 626.3,359.564C612.585,359.564 599.433,365.096 589.843,374.901C580.316,365.582 567.506,360.358 554.18,360.358C526.202,360.358 503.18,383.381 503.18,411.358C503.18,425.074 508.712,438.225 518.517,447.816L589.74,519.461" style="fill:rgb(0,0,128);fill-rule:nonzero;"/>
    </g>
    <rect x="1" y="227.119" width="345.48" height="313.26" style="fill:none;stroke:rgb(63,61,86);stroke-width:2px;"/>
    <rect x="689" y="190.119" width="345.48" height="313.26" style="fill:none;stroke:rgb(63,61,86);stroke-width:2px;"/>
    <circle cx="249.48" cy="144.279" r="43" style="fill:rgb(0,0,128);"/>
    <g transform="matrix(1,0,0,1,-82.26,-136.182)">
        <path d="M433.74,514.461C433.74,514.461 487.74,495.461 510.74,521.461C533.74,547.461 597.74,506.461 597.74,506.461" style="fill:none;fill-rule:nonzero;stroke:rgb(63,61,86);stroke-width:2px;"/>
    </g>
    <g transform="matrix(1,0,0,1,-82.26,-136.182)">
        <path d="M872.74,521.461C872.74,521.461 862.74,497.461 794.74,519.461C726.74,541.461 630.74,540.461 606.74,506.461L670.758,433.227C680.077,423.7 685.3,410.89 685.3,397.564C685.3,369.586 662.278,346.564 634.3,346.564C620.585,346.564 607.433,352.096 597.843,361.901C588.316,352.582 575.506,347.358 562.18,347.358C534.202,347.358 511.18,370.381 511.18,398.358C511.18,412.074 516.712,425.225 526.517,434.816L597.74,506.461" style="fill:none;fill-rule:nonzero;stroke:rgb(63,61,86);stroke-width:2px;"/>
    </g>
    <ellipse cx="522.536" cy="462.101" rx="63.537" ry="9.822" style="fill:none;stroke:rgb(63,61,86);stroke-width:2px;"/>
    <ellipse cx="515.776" cy="531.192" rx="50.019" ry="7.732" style="fill:rgb(0,0,128);"/>
    <ellipse cx="515.776" cy="590.055" rx="33.796" ry="5.224" style="fill:rgb(0,0,128);"/>
    <ellipse cx="522.536" cy="524.304" rx="50.019" ry="7.732" style="fill:none;stroke:rgb(63,61,86);stroke-width:2px;"/>
    <ellipse cx="522.536" cy="584.87" rx="33.796" ry="5.224" style="fill:none;stroke:rgb(63,61,86);stroke-width:2px;"/>
    <circle cx="202.598" cy="357.484" r="33.252" style="fill:rgb(47,46,65);"/>
    <g transform="matrix(1,0,0,1,-82.26,-136.182)">
        <path d="M268.985,510.465C268.985,510.465 258.154,534.447 255.06,535.221C251.965,535.995 280.59,549.92 280.59,549.92C280.59,549.92 286.005,520.522 288.326,518.975C290.647,517.428 268.985,510.465 268.985,510.465Z" style="fill:rgb(159,97,106);fill-rule:nonzero;"/>
    </g>
    <circle cx="202.971" cy="369.641" r="22.435" style="fill:rgb(159,97,106);"/>
    <g transform="matrix(1,0,0,1,-82.26,-136.182)">
        <path d="M304.02,676.561L208.62,676.561C211.81,664.971 215.22,653.481 217.14,647.101C218.11,643.901 218.7,641.981 218.7,641.981C218.7,641.981 290.65,657.451 292.19,658.231C293.056,659.155 293.824,660.167 294.48,661.251C296.73,664.551 300.32,670.221 304.02,676.561Z" style="fill:rgb(47,46,65);fill-rule:nonzero;"/>
    </g>
    <g transform="matrix(1,0,0,1,-82.26,-136.182)">
        <path d="M185.433,457.858L162.224,422.271C162.224,422.271 167.963,384.94 160.227,391.902C152.491,398.865 150.042,426.983 150.042,426.983L176.923,467.915L185.433,457.858Z" style="fill:rgb(159,97,106);fill-rule:nonzero;"/>
    </g>
    <g transform="matrix(1,0,0,1,-82.26,-136.182)">
        <path d="M395.861,522.843L416.749,521.296C416.749,521.296 441.505,494.992 443.052,503.502C444.599,512.012 422.938,530.579 422.938,530.579L394.313,533.674L395.861,522.843Z" style="fill:rgb(159,97,106);fill-rule:nonzero;"/>
    </g>
    <g transform="matrix(1,0,0,1,-82.26,-136.182)">
        <path d="M243.455,530.579L243.455,522.843C243.455,522.843 223.341,509.691 224.114,507.37C224.888,505.049 222.567,503.502 222.567,503.502C222.567,503.502 220.246,500.408 220.246,499.634C220.246,498.86 217.152,498.087 217.152,498.087L197.811,475.651C197.811,475.651 186.98,453.99 184.659,454.763C182.338,455.537 169.96,460.179 171.508,463.273C173.055,466.368 216.378,532.9 216.378,532.9C216.378,532.9 218.699,547.599 222.567,547.599C226.435,547.599 243.455,530.579 243.455,530.579Z" style="fill:rgb(63,61,86);fill-rule:nonzero;"/>
    </g>
    <g transform="matrix(1,0,0,1,-82.26,-136.182)">
        <path d="M295.289,539.863C295.289,539.863 312.308,539.089 313.082,539.863C313.856,540.636 324.686,539.863 324.686,539.863C324.686,539.863 354.085,532.9 356.405,530.579C358.726,528.258 397.408,518.201 398.955,522.843C400.502,527.485 404.371,536.768 400.502,538.316C396.634,539.863 292.194,566.166 292.194,566.166L295.289,539.863Z" style="fill:rgb(63,61,86);fill-rule:nonzero;"/>
    </g>
    <circle cx="190.966" cy="322.486" r="13.76" style="fill:rgb(47,46,65);"/>
    <g transform="matrix(1,0,0,1,-82.26,-136.182)">
        <path d="M254.88,451.215C254.881,444.206 260.236,438.26 267.207,437.53C266.73,437.48 266.252,437.455 265.773,437.455C258.225,437.455 252.014,443.666 252.014,451.215C252.014,458.763 258.225,464.974 265.773,464.974C266.252,464.974 266.73,464.949 267.207,464.9C260.236,464.169 254.881,458.224 254.88,451.215Z" style="fill:rgb(47,46,65);fill-rule:nonzero;"/>
    </g>
    <ellipse cx="206.467" cy="350.433" rx="22.933" ry="13.76" style="fill:rgb(47,46,65);"/>
    <g transform="matrix(1,0,0,1,-82.26,-136.182)">
        <path d="M262.409,522.456C262.409,522.456 255.447,527.872 253.899,528.645C252.352,529.419 243.068,521.682 241.521,521.682C239.974,521.682 219.859,544.891 219.859,544.891C219.859,544.891 223.598,549.197 219.859,571.195C218.458,579.445 215.676,614.715 215.676,619.357C215.676,623.999 200.519,635.406 214.444,645.463C228.369,655.521 294.902,666.351 295.675,660.162C296.449,653.973 287.939,637.727 291.807,629.991C295.675,622.254 295.675,593.63 295.675,593.63L300.317,563.459L304.185,539.476C304.185,539.476 286.005,534.447 284.458,534.447C282.91,534.447 275.948,545.278 262.409,522.456Z" style="fill:rgb(63,61,86);fill-rule:nonzero;"/>
    </g>
    <g transform="matrix(0.999249,-0.038749,0.038749,0.999249,-99.3328,-98.9469)">
        <rect x="944.106" y="448.866" width="15.843" height="20.369" style="fill:rgb(0,0,128);"/>
    </g>
    <g transform="matrix(1,0,0,1,-82.26,-136.182)">
        <path d="M888.136,519.85C888.136,519.85 866.212,509.376 866.563,518.422C866.914,527.468 888.662,533.419 888.662,533.419L888.136,519.85Z" style="fill:rgb(255,185,185);fill-rule:nonzero;"/>
    </g>
    <g transform="matrix(1,0,0,1,-82.26,-136.182)">
        <path d="M990.08,639.561L886.09,639.561C888.26,629.381 892.39,617.101 895.62,608.251C898.18,601.251 900.16,596.391 900.16,596.391C911.97,583.071 929.11,582.731 945.19,586.021C947.11,586.411 949.02,586.851 950.9,587.341C951.12,587.391 951.34,587.451 951.56,587.511C955.32,588.481 958.97,589.601 962.42,590.721C968.37,592.661 973.74,594.621 978.08,595.951C980.262,596.673 982.504,597.198 984.78,597.521C985.278,597.574 985.779,597.594 986.28,597.581C988,597.511 989.19,599.361 989.96,602.591C991.7,609.881 991.3,624.241 990.08,639.561Z" style="fill:rgb(47,46,65);fill-rule:nonzero;"/>
    </g>
    <g transform="matrix(1,0,0,1,-82.26,-136.182)">
        <path d="M969.567,429.492C969.567,429.492 981.62,448.277 986.318,452.625C991.017,456.972 977.798,466.545 977.798,466.545L954.14,469.727C954.14,469.727 954.437,448.199 953.219,445.981C952.001,443.763 969.567,429.492 969.567,429.492Z" style="fill:rgb(255,185,185);fill-rule:nonzero;"/>
    </g>
    <g transform="matrix(1,0,0,1,-82.26,-136.182)">
        <path d="M949.003,454.072C949.003,454.072 953.877,462.942 958.4,462.767C962.923,462.592 986.318,452.625 987.317,449.188C988.317,445.752 995.067,473.802 995.067,473.802L937.82,574.547L923.856,564.896L930.622,505.745L936.179,473.821L949.003,454.072Z" style="fill:rgb(0,0,128);fill-rule:nonzero;"/>
    </g>
    <g transform="matrix(1,0,0,1,-82.26,-136.182)">
        <path d="M989.429,544.234C987.065,548.826 985.859,553.927 985.917,559.092C985.926,559.318 985.935,559.544 985.955,559.77C986.496,570.236 990.352,582.339 991.735,591.142C992.739,597.456 992.453,602.065 988.758,603.148C979.799,605.76 990.064,607.627 955.405,619.164C920.746,630.7 914.697,620.742 914.61,618.481C914.522,616.219 919.518,599.038 918.343,597.951C917.169,596.864 901.908,612.178 897.297,610.092C892.687,608.006 896.771,596.523 896.771,596.523C896.771,596.523 907.158,572.338 906.939,566.685C906.719,561.031 922.672,534.365 922.672,534.365L933.523,463.732C933.523,463.732 937.695,454.51 943.305,453.16C946.838,452.426 950.522,453.096 953.57,455.027L944.182,475.775L934.278,512.398L935.935,525.924C935.935,525.924 947.452,501.695 955.017,492.342C962.582,482.989 978.71,460.847 978.71,460.847C978.71,460.847 982.475,448.142 979.633,444.345C976.79,440.537 991.49,439.967 997.758,455.578C1001.08,463.852 1006.47,476.191 1009.85,487.679C1012.86,497.856 1014.28,507.371 1011.3,512.809C1006.74,521.117 995.275,532.037 989.429,544.234Z" style="fill:rgb(87,90,137);fill-rule:nonzero;"/>
    </g>
    <g transform="matrix(1,0,0,1,-82.26,-136.182)">
        <path d="M1011.3,512.809C1006.74,521.117 995.275,532.037 989.429,544.234C987.902,538.733 986.039,533.041 986.039,533.041C986.039,533.041 978.894,494.814 1000.03,484.934C1003.53,484.596 1007.03,485.575 1009.85,487.679C1012.86,497.856 1014.28,507.371 1011.3,512.809Z" style="fill-opacity:0.1;fill-rule:nonzero;"/>
    </g>
    <g transform="matrix(1,0,0,1,-82.26,-136.182)">
        <path d="M927.405,510.4L909.489,515.625L884.612,516.589L882.052,538.205L922.935,541.15C922.935,541.15 933.147,512.442 927.405,510.4Z" style="fill:rgb(87,90,137);fill-rule:nonzero;"/>
    </g>
    <g transform="matrix(1,0,0,1,-82.26,-136.182)">
        <path d="M956.621,583.08C956.621,583.08 932.652,587.057 938.123,594.27C943.594,601.483 964.827,593.9 964.827,593.9L956.621,583.08Z" style="fill:rgb(255,185,185);fill-rule:nonzero;"/>
    </g>
    <g transform="matrix(1,0,0,1,-82.26,-136.182)">
        <path d="M985.955,559.77C986.496,570.236 990.352,582.339 991.735,591.142C984.099,598.369 976.838,604.743 974.102,604.849C968.448,605.068 959.358,604.288 956.009,605.55C952.661,606.813 950.697,585.372 950.697,585.372C950.697,585.372 952.696,578.5 961.61,574.757C967.627,572.224 979.161,565.356 985.955,559.77Z" style="fill-opacity:0.1;fill-rule:nonzero;"/>
    </g>
    <g transform="matrix(1,0,0,1,-82.26,-136.182)">
        <path d="M999.765,478.15C999.765,478.15 1018.9,475.143 1017.87,506.892C1016.83,538.641 1019.88,558.907 1012.19,564.868C1004.49,570.829 979.492,597.845 973.839,598.064C968.185,598.284 959.095,597.504 955.746,598.766C952.398,600.028 950.434,578.587 950.434,578.587C950.434,578.587 952.432,571.715 961.347,567.972C970.262,564.229 991.264,550.957 991.088,546.434C990.913,541.911 985.776,526.256 985.776,526.256C985.776,526.256 978.631,488.029 999.765,478.15Z" style="fill:rgb(87,90,137);fill-rule:nonzero;"/>
    </g>
    <circle cx="870.433" cy="296.23" r="24.896" style="fill:rgb(255,185,185);"/>
    <g transform="matrix(1,0,0,1,-82.26,-136.182)">
        <path d="M935.93,396.729C935.33,397.246 934.61,397.607 933.837,397.779C933.034,397.923 932.254,397.383 932.106,396.58C931.658,397.822 930.826,398.89 929.731,399.627C928.568,400.233 926.769,399.725 926.602,398.424C926.432,399.411 925.995,400.334 925.338,401.091C924.631,401.839 923.435,401.879 922.679,401.18C923.188,403.963 922.874,406.825 923.033,409.65C923.193,412.475 923.947,415.469 926.081,417.327C929.193,420.036 933.874,419.367 937.968,418.854C938.587,418.724 939.23,418.759 939.831,418.956C941.364,419.609 941.295,421.743 941.315,423.409C941.572,429.421 946.179,434.417 952.151,435.16C953.775,435.411 955.434,435.006 956.761,434.035C957.923,433.05 958.517,431.444 959.849,430.704C962.016,429.5 964.644,431.256 966.228,433.162C967.812,435.069 969.373,437.414 971.828,437.763C975.073,438.224 977.546,434.917 978.758,431.871C982.138,423.25 981.891,413.619 978.076,405.182C971.299,390.409 948.147,388.072 935.93,396.729Z" style="fill:rgb(47,46,65);fill-rule:nonzero;"/>
    </g>
</svg>
