<?xml version="1.0" encoding="UTF-8" standalone="no"?>
<!DOCTYPE svg PUBLIC "-//W3C//DTD SVG 1.1//EN" "http://www.w3.org/Graphics/SVG/1.1/DTD/svg11.dtd">
<svg width="100%" height="100%" viewBox="0 0 1111 858" version="1.1" xmlns="http://www.w3.org/2000/svg" xmlns:xlink="http://www.w3.org/1999/xlink" xml:space="preserve" xmlns:serif="http://www.serif.com/" style="fill-rule:evenodd;clip-rule:evenodd;stroke-miterlimit:10;">
    <ellipse cx="346.73" cy="821.68" rx="237.5" ry="36" style="fill:rgb(0,0,128);fill-opacity:0.1;"/>
    <g transform="matrix(1,0,0,1,-44.77,-21.16)">
        <path d="M387.66,59C425.33,25.8 484.47,19 538.31,21.68C707.39,30 860,110.67 992.05,201.94C1039.85,234.99 1086.91,270.59 1117.93,316.1C1181.09,408.72 1162.35,537.04 1074.53,613.34C1044.65,639.34 1008.43,659.21 971.25,676.85C905.13,708.22 833.79,733.4 758.75,740.57C705.24,745.68 651.07,741.52 597.87,734.39C449.23,714.47 303.33,670.39 181.05,595.02C127.42,562 76.87,520.86 54.76,467.37C32.65,413.88 46.76,346.1 101.57,314.45C124.22,301.35 151.3,295.45 177.81,289.88C216.81,281.71 256.49,273.65 291.71,257.04C328.08,239.87 371.15,206.68 363.95,168.7C356.22,127.93 350,92.14 387.66,59Z" style="fill:rgb(0,0,128);fill-opacity:0.1;fill-rule:nonzero;"/>
    </g>
    <g transform="matrix(1,0,0,1,-44.77,-21.16)">
        <path d="M965.6,109.62C972.36,154.18 953.55,193.99 953.55,193.99C953.55,193.99 923.78,161.56 917,117C913.21,92 917.46,68.52 921.92,52.7C923.225,47.934 927.588,44.605 932.529,44.605C936.287,44.605 939.793,46.53 941.81,49.7C950.78,63.46 961.81,84.63 965.6,109.62Z" style="fill:rgb(0,0,128);fill-rule:nonzero;"/>
    </g>
    <g transform="matrix(1,0,0,1,-44.77,-21.16)">
        <path d="M1091.3,180.64C1098,180.609 1104.67,181.453 1111.15,183.15C1122.06,185.95 1122.23,201.4 1111.38,204.44C1104.94,206.275 1098.29,207.263 1091.59,207.38C1067.06,207.65 1047.03,194.49 1047.03,194.49C1047.03,194.49 1066.77,180.91 1091.3,180.64Z" style="fill:rgb(0,0,128);fill-rule:nonzero;"/>
    </g>
    <g transform="matrix(1,0,0,1,-44.77,-21.16)">
        <path d="M1022.32,112.9C999.49,137.99 994.66,170.78 994.66,170.78C994.66,170.78 1026.84,162.88 1049.66,137.78C1060.24,126.15 1066.96,112.87 1071.12,101.97C1071.6,100.717 1071.84,99.387 1071.84,98.046C1071.84,92.012 1066.88,87.046 1060.84,87.046C1059.16,87.046 1057.51,87.431 1056,88.17C1045.48,93.34 1032.9,101.27 1022.32,112.9Z" style="fill:rgb(0,0,128);fill-rule:nonzero;"/>
    </g>
    <path d="M1025.46,106.81L1025.46,686.18C1025.46,697.108 1016.59,705.98 1005.66,705.98L531.26,705.98C520.332,705.98 511.46,697.108 511.46,686.18L511.46,106.81C511.46,95.882 520.332,87.01 531.26,87.01L1005.66,87.01C1016.59,87.01 1025.46,95.882 1025.46,106.81Z" style="fill:rgb(70,67,83);"/>
    <rect x="555.8" y="149.45" width="425.32" height="494.09" style="fill:rgb(0,0,128);fill-opacity:0.1;"/>
    <circle cx="768.46" cy="676.12" r="18.1" style="fill:white;"/>
    <g transform="matrix(1,0,0,1,-44.77,-21.16)">
        <path d="M813.23,152.92C808.54,152.92 804.68,149.06 804.68,144.37C804.68,139.68 808.54,135.82 813.23,135.82C817.92,135.82 821.78,139.68 821.78,144.37C821.769,149.056 817.916,152.909 813.23,152.92Z" style="fill:white;fill-rule:nonzero;"/>
    </g>
    <g transform="matrix(1,0,0,1,-44.77,-21.16)">
        <path d="M813.23,136.32C817.646,136.32 821.28,139.954 821.28,144.37C821.28,148.786 817.646,152.42 813.23,152.42C808.814,152.42 805.18,148.786 805.18,144.37C805.185,139.956 808.816,136.325 813.23,136.32M813.23,135.32C813.23,135.32 813.197,135.32 813.18,135.32C808.215,135.32 804.13,139.405 804.13,144.37C804.13,149.335 808.215,153.42 813.18,153.42C818.145,153.42 822.23,149.335 822.23,144.37C822.23,144.353 822.23,144.337 822.23,144.32C822.23,139.383 818.167,135.32 813.23,135.32Z" style="fill:white;fill-rule:nonzero;"/>
    </g>
    <path d="M663.77,306.81L663.77,418.13C663.77,420.503 661.843,422.43 659.47,422.43L579.86,422.43C577.487,422.43 575.56,420.503 575.56,418.13L575.56,306.81C575.56,304.437 577.487,302.51 579.86,302.51L659.47,302.51C661.843,302.51 663.77,304.437 663.77,306.81Z" style="fill:white;stroke:white;stroke-width:1px;"/>
    <path d="M655.5,339.87L655.5,363.64C655.5,367.581 652.301,370.78 648.36,370.78L590.97,370.78C587.029,370.78 583.83,367.581 583.83,363.64L583.83,339.87C583.83,335.929 587.029,332.73 590.97,332.73L648.36,332.73C652.301,332.73 655.5,335.929 655.5,339.87Z" style="fill:rgb(0,0,128);fill-opacity:0.5;"/>
    <path d="M640.54,387.99L640.54,390.52C640.54,391.453 639.783,392.21 638.85,392.21L600.48,392.21C599.547,392.21 598.79,391.453 598.79,390.52L598.79,387.99C598.79,387.057 599.547,386.3 600.48,386.3L638.85,386.3C639.783,386.3 640.54,387.057 640.54,387.99Z" style="fill:rgb(0,0,128);"/>
    <path d="M812.9,306.81L812.9,418.13C812.9,420.503 810.973,422.43 808.6,422.43L728.99,422.43C726.617,422.43 724.69,420.503 724.69,418.13L724.69,306.81C724.69,304.437 726.617,302.51 728.99,302.51L808.6,302.51C810.973,302.51 812.9,304.437 812.9,306.81Z" style="fill:white;stroke:white;stroke-width:1px;"/>
    <path d="M790.16,322.7L790.16,342.22C790.16,343.026 789.506,343.68 788.7,343.68L749.35,343.68C748.544,343.68 747.89,343.026 747.89,342.22L747.89,322.7C747.89,321.894 748.544,321.24 749.35,321.24L788.7,321.24C789.506,321.24 790.16,321.894 790.16,322.7Z" style="fill:rgb(0,0,128);fill-opacity:0.5;"/>
    <path d="M795.67,366.4L795.67,368.93C795.67,369.863 794.913,370.62 793.98,370.62L743.4,370.62C742.467,370.62 741.71,369.863 741.71,368.93L741.71,366.4C741.71,365.467 742.467,364.71 743.4,364.71L793.98,364.71C794.913,364.71 795.67,365.467 795.67,366.4Z" style="fill:rgb(0,0,128);"/>
    <path d="M795.67,377.42L795.67,379.95C795.67,380.883 794.913,381.64 793.98,381.64L743.4,381.64C742.467,381.64 741.71,380.883 741.71,379.95L741.71,377.42C741.71,376.487 742.467,375.73 743.4,375.73L793.98,375.73C794.913,375.73 795.67,376.487 795.67,377.42Z" style="fill:rgb(0,0,128);"/>
    <path d="M961.36,221.62L961.36,332.94C961.36,335.313 959.433,337.24 957.06,337.24L877.45,337.24C875.077,337.24 873.15,335.313 873.15,332.94L873.15,221.62C873.15,219.247 875.077,217.32 877.45,217.32L957.06,217.32C959.433,217.32 961.36,219.247 961.36,221.62Z" style="fill:white;stroke:white;stroke-width:1px;"/>
    <path d="M945.97,237.39L945.97,261.27C945.97,262.076 945.316,262.73 944.51,262.73L890,262.73C889.194,262.73 888.54,262.076 888.54,261.27L888.54,237.39C888.54,236.584 889.194,235.93 890,235.93L944.51,235.93C945.316,235.93 945.97,236.584 945.97,237.39Z" style="fill:rgb(0,0,128);fill-opacity:0.5;"/>
    <path d="M945.97,276.34L945.97,300.22C945.97,301.026 945.316,301.68 944.51,301.68L890,301.68C889.194,301.68 888.54,301.026 888.54,300.22L888.54,276.34C888.54,275.534 889.194,274.88 890,274.88L944.51,274.88C945.316,274.88 945.97,275.534 945.97,276.34Z" style="fill:rgb(0,0,128);fill-opacity:0.5;"/>
    <path d="M902.79,327.11L902.79,327.72C902.79,329.834 901.074,331.55 898.96,331.55L887.78,331.55C885.666,331.55 883.95,329.834 883.95,327.72L883.95,327.11C883.95,324.996 885.666,323.28 887.78,323.28L898.96,323.28C901.074,323.28 902.79,324.996 902.79,327.11Z" style="fill:rgb(0,0,128);"/>
    <path d="M926.68,327.11L926.68,327.72C926.68,329.834 924.964,331.55 922.85,331.55L911.67,331.55C909.556,331.55 907.84,329.834 907.84,327.72L907.84,327.11C907.84,324.996 909.556,323.28 911.67,323.28L922.85,323.28C924.964,323.28 926.68,324.996 926.68,327.11Z" style="fill:rgb(0,0,128);"/>
    <path d="M950.57,327.11L950.57,327.72C950.57,329.834 948.854,331.55 946.74,331.55L935.56,331.55C933.446,331.55 931.73,329.834 931.73,327.72L931.73,327.11C931.73,324.996 933.446,323.28 935.56,323.28L946.74,323.28C948.854,323.28 950.57,324.996 950.57,327.11Z" style="fill:rgb(0,0,128);"/>
    <path d="M961.15,392L961.15,503.32C961.15,505.693 959.223,507.62 956.85,507.62L877.24,507.62C874.867,507.62 872.94,505.693 872.94,503.32L872.94,392C872.94,389.627 874.867,387.7 877.24,387.7L956.85,387.7C959.223,387.7 961.15,389.627 961.15,392Z" style="fill:white;stroke:white;stroke-width:1px;"/>
    <path d="M906.11,403.18L906.11,427.06C906.11,427.866 905.456,428.52 904.65,428.52L881.21,428.52C880.404,428.52 879.75,427.866 879.75,427.06L879.75,403.18C879.75,402.374 880.404,401.72 881.21,401.72L904.65,401.72C905.456,401.72 906.11,402.374 906.11,403.18Z" style="fill:rgb(0,0,128);fill-opacity:0.5;"/>
    <path d="M944.03,446.53L944.03,449.06C944.03,449.993 943.273,450.75 942.34,450.75L891.76,450.75C890.827,450.75 890.07,449.993 890.07,449.06L890.07,446.53C890.07,445.597 890.827,444.84 891.76,444.84L942.34,444.84C943.273,444.84 944.03,445.597 944.03,446.53Z" style="fill:rgb(0,0,128);"/>
    <path d="M944.03,458.48L944.03,461.01C944.03,461.943 943.273,462.7 942.34,462.7L891.76,462.7C890.827,462.7 890.07,461.943 890.07,461.01L890.07,458.48C890.07,457.547 890.827,456.79 891.76,456.79L942.34,456.79C943.273,456.79 944.03,457.547 944.03,458.48Z" style="fill:rgb(0,0,128);"/>
    <path d="M944.03,470.43L944.03,472.96C944.03,473.893 943.273,474.65 942.34,474.65L891.76,474.65C890.827,474.65 890.07,473.893 890.07,472.96L890.07,470.43C890.07,469.497 890.827,468.74 891.76,468.74L942.34,468.74C943.273,468.74 944.03,469.497 944.03,470.43Z" style="fill:rgb(0,0,128);"/>
    <g transform="matrix(1,0,0,1,-44.77,-21.16)">
        <path d="M759.29,380.77L757.94,381.42L747,386.68L746,387.15C745.929,387.183 745.851,387.201 745.772,387.201C745.551,387.201 745.352,387.065 745.27,386.86C745.259,386.794 745.259,386.726 745.27,386.66L745.27,383.55C745.27,383.259 745.031,383.02 744.74,383.02L718.15,383.02C717.858,383.02 717.615,382.782 717.61,382.49L717.61,378.1C717.615,377.808 717.858,377.57 718.15,377.57L744.77,377.57C745.062,377.565 745.3,377.322 745.3,377.03L745.3,373.85C745.29,373.784 745.29,373.716 745.3,373.65C745.384,373.449 745.581,373.318 745.798,373.318C745.879,373.318 745.958,373.336 746.03,373.37L747.03,373.84L757.94,379.15L759.29,379.81C759.476,379.897 759.595,380.085 759.595,380.29C759.595,380.495 759.476,380.683 759.29,380.77Z" style="fill:white;fill-rule:nonzero;stroke:white;stroke-width:1px;"/>
    </g>
    <g transform="matrix(1,0,0,1,-44.77,-21.16)">
        <path d="M907.32,353.8L906.44,355.01L899.28,364.77L898.65,365.64C898.546,365.774 898.385,365.852 898.216,365.852C898.09,365.852 897.968,365.809 897.87,365.73C897.819,365.686 897.778,365.631 897.75,365.57L896.29,362.83C896.15,362.57 895.824,362.468 895.56,362.6L872.06,375.11C871.983,375.151 871.897,375.173 871.809,375.173C871.613,375.173 871.432,375.064 871.34,374.89L869.28,371C869.239,370.923 869.217,370.837 869.217,370.749C869.217,370.553 869.326,370.372 869.5,370.28L893,357.79C893.174,357.698 893.283,357.517 893.283,357.321C893.283,357.233 893.261,357.147 893.22,357.07L891.73,354.26C891.692,354.204 891.671,354.138 891.67,354.07C891.667,354.047 891.665,354.023 891.665,354C891.665,353.717 891.897,353.483 892.18,353.48L893.25,353.48L905.37,353.04L906.87,352.99C907.161,352.99 907.4,353.229 907.4,353.52C907.4,353.619 907.372,353.716 907.32,353.8Z" style="fill:white;fill-rule:nonzero;stroke:white;stroke-width:1px;"/>
    </g>
    <g transform="matrix(1,0,0,1,-44.77,-21.16)">
        <path d="M907.24,405.06L892.57,405.06C892.569,405.06 892.569,405.06 892.568,405.06C892.278,405.06 892.038,404.821 892.038,404.53C892.038,404.517 892.039,404.503 892.04,404.49C892.042,404.424 892.06,404.359 892.09,404.3L893.43,401.49C893.465,401.418 893.483,401.339 893.483,401.259C893.483,401.055 893.365,400.868 893.18,400.78L869.18,389.26C868.914,389.131 868.802,388.806 868.93,388.54L870.83,384.59C870.914,384.404 871.1,384.283 871.304,384.283C871.386,384.283 871.467,384.303 871.54,384.34L895.54,395.87C895.807,395.993 896.127,395.881 896.26,395.62L897.64,392.75C897.724,392.563 897.91,392.443 898.115,392.443C898.278,392.443 898.432,392.52 898.53,392.65L899.2,393.48L906.73,403L907.66,404.18C907.745,404.277 907.792,404.401 907.792,404.53C907.792,404.821 907.553,405.06 907.262,405.06C907.255,405.06 907.247,405.06 907.24,405.06Z" style="fill:white;fill-rule:nonzero;stroke:white;stroke-width:1px;"/>
    </g>
    <path d="M424.19,606.65L424.11,609.58L419.01,789.65L410.43,789.65L414.64,609.58L414.72,606.2L424.19,606.65Z" style="fill:rgb(80,79,96);fill-rule:nonzero;"/>
    <path d="M424.19,606.65L424.11,609.58L419.01,789.65L410.43,789.65L414.64,609.58L414.72,606.2L424.19,606.65Z" style="fill-opacity:0.1;fill-rule:nonzero;"/>
    <path d="M473.84,759.19L467.42,759.17L371.97,758.97L366.89,758.96L369.59,750.61L473.16,750.61L473.84,759.19Z" style="fill:rgb(80,79,96);fill-rule:nonzero;"/>
    <path d="M424.19,606.65L424.11,609.58L414.64,609.58L414.72,606.2L424.19,606.65Z" style="fill-opacity:0.1;fill-rule:nonzero;"/>
    <rect x="411.9" y="602.25" width="15.91" height="5.98" style="fill:rgb(80,79,96);"/>
    <path d="M372.82,750.61L371.97,758.97L366.89,758.96L369.59,750.61L372.82,750.61Z" style="fill-opacity:0.1;fill-rule:nonzero;"/>
    <path d="M386.52,602.14L386.25,604.73L365.08,813.56L355.38,813.11L377.69,604.73L377.94,602.36L386.52,602.14Z" style="fill:rgb(80,79,96);fill-rule:nonzero;"/>
    <path d="M473.84,759.19L467.42,759.17L466.55,750.61L473.16,750.61L473.84,759.19Z" style="fill-opacity:0.1;fill-rule:nonzero;"/>
    <path d="M484,813.11L474.29,813.56L453.12,604.73L452.86,602.14L461.43,602.36L461.68,604.73L484,813.11Z" style="fill:rgb(80,79,96);fill-rule:nonzero;"/>
    <rect x="311.38" y="396.23" width="213.91" height="205.11" style="fill:white;"/>
    <path d="M572.46,400.36L572.46,597.21C572.46,599.489 570.609,601.34 568.33,601.34L268.59,601.34C266.311,601.34 264.46,599.489 264.46,597.21L264.46,400.36C264.46,398.081 266.311,396.23 268.59,396.23L568.33,396.23C570.609,396.23 572.46,398.081 572.46,400.36Z" style="fill:white;"/>
    <g transform="matrix(1,0,0,1,-44.77,-21.16)">
        <path d="M467.27,348.8L467.27,398.33L458.93,398.33L458.93,348.8C458.93,346.512 460.812,344.63 463.1,344.63C465.388,344.63 467.27,346.512 467.27,348.8Z" style="fill:rgb(80,79,96);fill-rule:nonzero;"/>
    </g>
    <rect x="414.16" y="372.66" width="8.35" height="4.51" style="fill-opacity:0.1;"/>
    <g transform="matrix(1,0,0,1,-44.77,-21.16)">
        <path d="M470.55,397.2L470.55,413.56L455.66,413.56L455.66,397.2C455.66,396.103 456.563,395.2 457.66,395.2L468.49,395.2C468.51,395.199 468.53,395.199 468.55,395.199C469.647,395.199 470.55,396.102 470.55,397.199C470.55,397.199 470.55,397.2 470.55,397.2Z" style="fill:rgb(80,79,96);fill-rule:nonzero;"/>
    </g>
    <circle cx="418.33" cy="384.39" r="3.16" style="fill-opacity:0.1;"/>
    <circle cx="418.33" cy="383.71" r="3.16" style="fill:rgb(0,0,128);"/>
    <rect x="410.89" y="390.37" width="14.89" height="2.03" style="fill-opacity:0.1;"/>
    <rect x="404.79" y="393.08" width="27.08" height="4.51" style="fill-opacity:0.1;"/>
    <rect x="404.79" y="391.72" width="27.08" height="4.51" style="fill:rgb(80,79,96);"/>
    <path d="M364.63,596L476.21,596C479.502,596 482.21,598.708 482.21,602L358.65,602C358.65,598.716 361.346,596.011 364.63,596Z" style="fill-opacity:0.1;fill-rule:nonzero;"/>
    <path d="M377.94,602.36L386.52,602.14L386.25,604.73L377.69,604.73L377.94,602.36Z" style="fill-opacity:0.1;fill-rule:nonzero;"/>
    <rect x="411.9" y="602.25" width="15.91" height="2.48" style="fill-opacity:0.1;"/>
    <path d="M461.68,604.73L453.12,604.73L452.86,602.14L461.43,602.36L461.68,604.73Z" style="fill-opacity:0.1;fill-rule:nonzero;"/>
    <path d="M364.63,597.4L476.21,597.4C479.502,597.4 482.21,600.108 482.21,603.4L358.65,603.4C358.65,600.108 361.358,597.4 364.65,597.4L364.63,597.4Z" style="fill:rgb(80,79,96);fill-rule:nonzero;"/>
    <g transform="matrix(1,0,0,1,-44.77,-21.16)">
        <path d="M562.59,441.48C562.666,441.468 562.743,441.462 562.819,441.462C563.637,441.462 564.309,442.135 564.309,442.952C564.309,443.008 564.306,443.064 564.3,443.12C562.85,457.12 563.78,471.46 565.35,485.43C566.08,491.82 567.07,498.58 569.9,503.32C570.27,503.91 570.187,504.683 569.7,505.18C568.91,505.795 567.918,506.091 566.92,506.01L522.29,506.26C522.286,506.26 522.282,506.26 522.278,506.26C521.461,506.26 520.788,505.587 520.788,504.77C520.788,504.652 520.802,504.535 520.83,504.42C524.42,489.12 523.65,472.42 522.21,456.55C521.5,448.74 521.09,444.55 526.92,444C532.92,443.46 538.92,443.21 544.92,442.71C546.36,442.59 557.9,442.25 562.59,441.48Z" style="fill:white;fill-rule:nonzero;stroke:rgb(51,49,63);stroke-width:3px;"/>
    </g>
    <g transform="matrix(1,0,0,1,-44.77,-21.16)">
        <path d="M528.44,533.17C528.364,533.158 528.287,533.152 528.211,533.152C527.393,533.152 526.721,533.825 526.721,534.642C526.721,534.698 526.724,534.754 526.73,534.81C528.18,548.81 527.25,563.15 525.67,577.12C524.95,583.51 523.96,590.27 521.13,595.02C520.757,595.606 520.841,596.378 521.33,596.87C522.12,597.485 523.112,597.781 524.11,597.7L568.74,597.96C569.564,597.954 570.239,597.274 570.239,596.45C570.239,596.336 570.226,596.222 570.2,596.11C566.61,580.81 567.38,564.11 568.82,548.24C569.53,540.43 569.94,536.24 564.11,535.69C558.28,535.14 552.11,534.9 546.11,534.4C544.67,534.28 533.13,533.94 528.44,533.17Z" style="fill:white;fill-rule:nonzero;stroke:rgb(51,49,63);stroke-width:3px;"/>
    </g>
    <g transform="matrix(1,0,0,1,-44.77,-21.16)">
        <path d="M541.55,558.93C546.736,558.688 551.932,558.752 557.11,559.12C557.8,559.186 558.353,559.732 558.43,560.42L558.92,564.51C558.97,564.695 558.925,564.894 558.8,565.04C558.69,565.119 558.555,565.155 558.42,565.14C556.24,565.2 554.06,564.95 551.89,565.14C550.54,565.25 549.2,565.51 547.89,565.66C545.676,565.855 543.45,565.895 541.23,565.78C538.102,565.834 534.982,565.45 531.96,564.64C528.938,563.83 532.14,561.25 532.14,560.93C532.14,559.35 532.09,559.21 533.72,559.17L541.55,558.93Z" style="fill:none;fill-rule:nonzero;stroke:rgb(51,49,63);stroke-width:2px;stroke-linecap:round;"/>
    </g>
    <g transform="matrix(1,0,0,1,-44.77,-21.16)">
        <path d="M541.55,577.37C546.736,577.614 551.932,577.547 557.11,577.17C557.8,577.104 558.353,576.558 558.43,575.87L558.92,571.79C558.97,571.601 558.925,571.4 558.8,571.25C558.69,571.171 558.555,571.135 558.42,571.15C556.24,571.09 554.06,571.35 551.89,571.15C550.54,571.05 549.2,570.79 547.89,570.64C545.676,570.44 543.45,570.4 541.23,570.52C538.102,570.466 534.982,570.85 531.96,571.66C528.938,572.47 532.14,575.04 532.14,575.37C532.14,576.95 532.09,577.08 533.72,577.13L541.55,577.37Z" style="fill:none;fill-rule:nonzero;stroke:rgb(51,49,63);stroke-width:2px;stroke-linecap:round;"/>
    </g>
    <g transform="matrix(1,0,0,1,-44.77,-21.16)">
        <path d="M541.55,584.59C546.736,584.346 551.932,584.413 557.11,584.79C557.8,584.856 558.353,585.402 558.43,586.09L558.92,590.17C558.97,590.359 558.925,590.56 558.8,590.71C558.69,590.789 558.555,590.825 558.42,590.81C556.24,590.87 554.06,590.61 551.89,590.81C550.54,590.91 549.2,591.18 547.89,591.33C545.675,591.522 543.45,591.558 541.23,591.44C538.102,591.497 534.982,591.117 531.96,590.31C528.938,589.503 532.14,586.92 532.14,586.59C532.14,585.01 532.09,584.88 533.72,584.84L541.55,584.59Z" style="fill:none;fill-rule:nonzero;stroke:rgb(51,49,63);stroke-width:2px;stroke-linecap:round;"/>
    </g>
    <g transform="matrix(1,0,0,1,-44.77,-21.16)">
        <path d="M548.12,499C548.577,500.099 548.729,501.302 548.56,502.48C548.562,502.575 548.537,502.668 548.49,502.75C548.378,502.858 548.225,502.913 548.07,502.9L538.57,503.27C538.57,503.27 539.1,500.47 539.17,500.27C539.5,499.13 540.33,499.43 541.4,499.37L548.12,499Z" style="fill:white;fill-rule:nonzero;stroke:rgb(51,49,63);stroke-width:2px;stroke-linecap:round;"/>
    </g>
    <g transform="matrix(1,0,0,1,-44.77,-21.16)">
        <path d="M562.47,499C562.924,500.1 563.073,501.303 562.9,502.48C562.905,502.574 562.884,502.667 562.84,502.75C562.727,502.856 562.575,502.91 562.42,502.9L552.91,503.27C552.91,503.27 553.45,500.47 553.52,500.27C553.84,499.13 554.67,499.43 555.75,499.37L562.47,499Z" style="fill:white;fill-rule:nonzero;stroke:rgb(51,49,63);stroke-width:2px;stroke-linecap:round;"/>
    </g>
    <g transform="matrix(1,0,0,1,-44.77,-21.16)">
        <path d="M556.74,451.26L558.02,462.26C558.031,462.367 558.037,462.474 558.037,462.581C558.037,464.131 556.835,465.439 555.29,465.57C547.174,466.212 539.017,466.158 530.91,465.41C529.426,465.267 528.263,464.039 528.2,462.55C528.048,460.589 527.761,458.641 527.34,456.72C527.01,454.72 526.65,452.79 529.01,452.2C531.37,451.61 534.6,452.03 537.18,451.98C540.273,451.92 543.357,451.833 546.43,451.72C547.29,451.72 556.74,451.21 556.74,451.26Z" style="fill:none;fill-rule:nonzero;stroke:rgb(51,49,63);stroke-width:3px;"/>
    </g>
    <g transform="matrix(1,0,0,1,-44.77,-21.16)">
        <path d="M556.74,491L558,480C558.011,479.893 558.017,479.786 558.017,479.679C558.017,478.129 556.815,476.821 555.27,476.69C547.154,476.05 538.998,476.1 530.89,476.84C529.403,476.983 528.238,478.217 528.18,479.71C528.028,481.671 527.741,483.619 527.32,485.54C526.99,487.54 526.63,489.47 528.99,490.06C531.35,490.65 534.58,490.23 537.16,490.28C540.25,490.34 543.33,490.42 546.41,490.54C547.29,490.57 556.74,491.08 556.74,491Z" style="fill:none;fill-rule:nonzero;stroke:rgb(51,49,63);stroke-width:3px;"/>
    </g>
    <g transform="matrix(1,0,0,1,-44.77,-21.16)">
        <path d="M543.89,540.57C543.557,544.23 543.347,547.897 543.26,551.57C539.589,551.539 535.932,551.12 532.35,550.32C531.327,550.272 530.511,549.417 530.511,548.392C530.511,548.247 530.527,548.102 530.56,547.96C530.49,545.68 529.29,540.59 532.5,540.27C533.46,540.17 543.88,540.75 543.89,540.57Z" style="fill:none;fill-rule:nonzero;stroke:rgb(51,49,63);stroke-width:2px;stroke-linecap:round;"/>
    </g>
    <g transform="matrix(1,0,0,1,-44.77,-21.16)">
        <path d="M367.32,490.61C367.434,490.598 367.549,490.591 367.664,490.591C369.414,490.591 370.854,492.031 370.854,493.781C370.854,493.881 370.849,493.981 370.84,494.08C369.69,507.39 370.6,521.02 372.1,534.29C372.77,540.19 373.66,546.4 376.02,551.05C376.211,551.421 376.311,551.833 376.311,552.25C376.311,553.684 375.134,554.865 373.7,554.87L329.42,555.13C329.416,555.13 329.412,555.13 329.408,555.13C328.443,555.13 327.648,554.336 327.648,553.37C327.648,553.242 327.662,553.115 327.69,552.99C331.2,537.77 330.43,521.15 329,505.41C328.28,497.6 327.88,493.41 333.7,492.86C339.7,492.33 345.7,492.08 351.65,491.57C352.92,491.47 362,491.19 367.32,490.61Z" style="fill:white;fill-rule:nonzero;stroke:rgb(51,49,63);stroke-width:3px;stroke-linecap:round;"/>
    </g>
    <g transform="matrix(1,0,0,1,-44.77,-21.16)">
        <path d="M428.92,490.36C428.84,490.348 428.76,490.342 428.679,490.342C427.807,490.342 427.089,491.059 427.089,491.932C427.089,491.995 427.093,492.057 427.1,492.12C428.53,506.05 427.6,520.37 426.03,534.29C425.31,540.68 424.32,547.41 421.5,552.16C421.093,552.852 421.275,553.751 421.92,554.23C422.676,554.709 423.567,554.934 424.46,554.87L468.97,555.13C468.97,555.13 468.971,555.13 468.971,555.13C469.849,555.13 470.571,554.408 470.571,553.53C470.571,553.395 470.554,553.261 470.52,553.13C466.97,537.86 467.73,521.18 469.17,505.38C469.88,497.57 470.29,493.38 464.47,492.83C458.47,492.3 452.47,492.05 446.47,491.54C445,491.45 433.7,491.12 428.92,490.36Z" style="fill:white;fill-rule:nonzero;stroke:rgb(51,49,63);stroke-width:3px;"/>
    </g>
    <path d="M296.04,478.29L318.68,508.49" style="fill:none;fill-rule:nonzero;stroke:rgb(51,49,63);stroke-width:2px;stroke-linecap:round;"/>
    <path d="M318.68,476.03L296.79,510" style="fill:none;fill-rule:nonzero;stroke:rgb(51,49,63);stroke-width:2px;stroke-linecap:round;"/>
    <path d="M397.07,479.71L409.4,496.16" style="fill:none;fill-rule:nonzero;stroke:rgb(51,49,63);stroke-width:2px;stroke-linecap:round;"/>
    <path d="M409.4,478.47L397.48,496.98" style="fill:none;fill-rule:nonzero;stroke:rgb(51,49,63);stroke-width:2px;stroke-linecap:round;"/>
    <g transform="matrix(1,0,0,1,-44.77,-21.16)">
        <path d="M348.29,539.3C353.479,539.058 358.678,539.122 363.86,539.49C364.546,539.564 365.096,540.105 365.18,540.79L365.66,544.88C365.708,545.067 365.668,545.267 365.55,545.42C365.435,545.489 365.304,545.524 365.17,545.52C362.99,545.58 360.8,545.32 358.63,545.52C357.28,545.62 355.95,545.88 354.63,546.03C352.416,546.225 350.19,546.265 347.97,546.15C344.845,546.205 341.728,545.821 338.71,545.01C338.65,545.01 338.89,541.63 338.89,541.3C338.89,539.72 338.83,539.59 340.46,539.54L348.29,539.3Z" style="fill:none;fill-rule:nonzero;stroke:rgb(51,49,63);stroke-width:2px;stroke-linecap:round;"/>
    </g>
    <g transform="matrix(1,0,0,1,-44.77,-21.16)">
        <path d="M443.41,524.2C448.599,523.957 453.799,524.023 458.98,524.4C459.67,524.466 460.223,525.012 460.3,525.7L460.78,529.78C460.828,529.967 460.788,530.167 460.67,530.32C460.56,530.398 460.425,530.434 460.29,530.42C458.11,530.48 455.92,530.22 453.75,530.42C452.4,530.52 451.07,530.79 449.75,530.93C447.536,531.13 445.31,531.17 443.09,531.05C439.962,531.104 436.842,530.72 433.82,529.91C433.77,529.91 434,526.53 434,526.2C434,524.62 433.95,524.49 435.58,524.44L443.41,524.2Z" style="fill:none;fill-rule:nonzero;stroke:rgb(51,49,63);stroke-width:2px;stroke-linecap:round;"/>
    </g>
    <g transform="matrix(1,0,0,1,-44.77,-21.16)">
        <path d="M451.34,535.53C446.154,535.288 440.958,535.352 435.78,535.72C435.09,535.786 434.537,536.332 434.46,537.02L434,541.1C433.941,541.287 433.983,541.491 434.11,541.64C434.22,541.719 434.355,541.755 434.49,541.74C436.67,541.8 438.85,541.55 441.03,541.74C442.38,541.84 443.71,542.11 445.03,542.26C447.245,542.45 449.47,542.49 451.69,542.38C454.818,542.435 457.938,542.051 460.96,541.24C461.01,541.24 460.78,537.85 460.78,537.53C460.78,535.94 460.84,535.81 459.21,535.77L451.34,535.53Z" style="fill:none;fill-rule:nonzero;stroke:rgb(51,49,63);stroke-width:2px;stroke-linecap:round;"/>
    </g>
    <g transform="matrix(1,0,0,1,-44.77,-21.16)">
        <path d="M386.63,528.13C386.63,528.13 401.34,527.38 403.98,528.13" style="fill:none;fill-rule:nonzero;stroke:rgb(51,49,63);stroke-width:3px;"/>
    </g>
    <g transform="matrix(1,0,0,1,-44.77,-21.16)">
        <path d="M404,520.21C404,520.21 410.41,526.62 410.41,528.13C410.41,529.64 402.11,534.92 402.11,534.92" style="fill:none;fill-rule:nonzero;stroke:rgb(51,49,63);stroke-width:3px;"/>
    </g>
    <g transform="matrix(1,0,0,1,-44.77,-21.16)">
        <path d="M482.84,514.45C482.84,514.45 496.17,508.21 498.9,507.91" style="fill:none;fill-rule:nonzero;stroke:rgb(51,49,63);stroke-width:3px;"/>
    </g>
    <g transform="matrix(1,0,0,1,-44.77,-21.16)">
        <path d="M495.92,500.58C495.92,500.58 504.27,504.1 504.84,505.49C505.41,506.88 499.72,514.91 499.72,514.91" style="fill:none;fill-rule:nonzero;stroke:rgb(51,49,63);stroke-width:3px;"/>
    </g>
    <g transform="matrix(1,0,0,1,-44.77,-21.16)">
        <path d="M482.7,530.43C482.7,530.43 496.25,536.18 498.3,538.02" style="fill:none;fill-rule:nonzero;stroke:rgb(51,49,63);stroke-width:3px;"/>
    </g>
    <g transform="matrix(1,0,0,1,-44.77,-21.16)">
        <path d="M501.76,530.89C501.76,530.89 504.76,539.46 504.06,540.82C503.36,542.18 493.63,543.3 493.63,543.3" style="fill:none;fill-rule:nonzero;stroke:rgb(51,49,63);stroke-width:3px;"/>
    </g>
    <g transform="matrix(1,0,0,1,-44.77,-21.16)">
        <path d="M535.29,499C535.744,500.1 535.893,501.303 535.72,502.48C535.725,502.574 535.704,502.667 535.66,502.75C535.547,502.856 535.395,502.91 535.24,502.9L525.73,503.27C525.73,503.27 526.27,500.47 526.34,500.27C526.66,499.13 527.5,499.43 528.57,499.37L535.29,499Z" style="fill:white;fill-rule:nonzero;stroke:rgb(51,49,63);stroke-width:2px;stroke-linecap:round;"/>
    </g>
    <path d="M310.87,564.02L314.23,560.89L311.23,560.77L309.66,563.18L310.87,564.02Z" style="fill:rgb(51,49,63);fill-rule:nonzero;"/>
    <path d="M286.7,585.94L290.26,581.37L291.05,580.55L301.95,569.13L305.66,565.25L307.4,565.04L309.9,562.56L311.37,563.85L308.94,566.69L308.98,568.18L305.19,572.29L294.49,583.91L293.8,584.65L289.5,588.63L286.7,585.94Z" style="fill:rgb(0,0,128);fill-rule:nonzero;"/>
    <path d="M291.05,580.55L301.95,569.13L305.19,572.29L294.49,583.91L291.05,580.55Z" style="fill:rgb(51,49,63);fill-rule:nonzero;"/>
    <g transform="matrix(1,0,0,1,-44.77,-21.16)">
        <path d="M352.27,606.11C349.102,603.161 346.347,599.797 344.08,596.11C339.28,588.63 331.26,584.59 325.76,582.58L325.76,580.15L326.1,580.08L325.95,577.82L326.1,577.82L325.71,571.82L325.71,571.77L323.73,542C323.73,542 316.68,522.15 329.21,503.84C341.74,485.53 329.99,467.97 318.21,461.1C318.21,461.1 312.73,432.1 317.43,425.23C311.054,421.56 304.485,418.239 297.75,415.28C297.64,414.92 297.55,414.56 297.46,414.18C297.33,411.48 297.16,408.78 297.01,406.08C297.167,404.677 297.424,403.286 297.78,401.92C297.93,401.35 298.1,400.78 298.28,400.19C309.717,395.82 317.344,384.823 317.43,372.58C317.433,369.082 316.802,365.613 315.57,362.34C316.202,361.3 316.684,360.175 317,359C317.75,355.91 316.9,352.61 315.14,349.48C312,342.7 304.17,336.35 298.49,334C290.35,330.7 278.1,331.48 269.62,332.5C264.86,333.07 259.43,334.66 257.71,339.02C257.08,340.62 257.07,342.39 256.63,344.02C254.85,350.68 247.16,353.78 242.41,358.88C238.21,363.38 236.41,369.47 235.01,375.4C231.111,392.395 230.18,409.938 232.26,427.25C232.74,431.25 233.38,435.2 234.06,439.16C231.2,443.16 228.62,450.23 229.8,462.51L220.4,506.77L216.49,532.72C216.49,532.72 214.14,543.4 223.49,552.56C229.49,558.4 236.74,568.27 241.21,574.66C239.264,580.318 238.3,586.267 238.36,592.25C238.46,594.97 238.61,597.6 238.8,600.1C239.196,605.411 240.203,610.659 241.8,615.74C242.9,626.4 245.07,640.03 249.32,648.74L250.88,695.29C250.88,695.29 248.53,738.03 243.88,746.42C239.23,754.81 254.05,825.79 254.05,825.79L254.05,835.71L251.55,843.05L250.92,842.58C239.18,857.08 250.92,862.42 250.92,862.42C250.92,862.42 254.12,862.57 259.23,862.77C258.34,866.941 260.408,871.217 264.23,873.11C268.052,875.003 330.76,876.16 342.51,873.11C354.26,870.06 351.12,859.37 344.85,860.11C342.46,860.41 338.93,859.78 335.48,858.89C339.13,854.64 336.21,848.89 331.55,849.43C325.29,850.19 311.2,844.65 311.2,844.65L311.13,844.74C310.68,844.569 310.219,844.428 309.75,844.32C304.516,843.143 299.346,841.698 294.26,839.99C291.26,833.56 284.26,816.28 289.26,802.88C291.52,796.82 292.26,788.76 292.26,780.94C292.379,757.349 295.851,733.894 302.57,711.28L311.96,679.28C311.96,679.28 325.27,640.35 326.05,629.67L326,614.13C337,621.13 345.75,619.03 351.33,615.76C353.157,614.682 354.281,612.713 354.281,610.592C354.281,608.88 353.549,607.248 352.27,606.11ZM247.8,525.11C248.07,523.99 248.29,522.77 248.48,521.48C250.32,521.48 252.17,521.48 254.01,521.42C256.298,526.069 257.261,531.26 256.79,536.42C252.55,535.11 246.21,531.9 247.8,525.16L247.8,525.11Z" style="fill:url(#_Linear1);fill-rule:nonzero;"/>
    </g>
    <g transform="matrix(1,0,0,1,-44.77,-21.16)">
        <path d="M255.24,832L252.24,841L262.03,850.79L294.42,858.32L317.77,856.06L316.26,847.77C315.346,844.149 312.477,841.33 308.84,840.48C299.24,838.22 280.94,833.08 277.09,825.93L255.24,832Z" style="fill:rgb(219,139,139);fill-rule:nonzero;"/>
    </g>
    <g transform="matrix(1,0,0,1,-44.77,-21.16)">
        <path d="M255.24,832L252.24,841L262.03,850.79L294.42,858.32L317.77,856.06L316.26,847.77C315.346,844.149 312.477,841.33 308.84,840.48C299.24,838.22 280.94,833.08 277.09,825.93L255.24,832Z" style="fill-opacity:0.1;fill-rule:nonzero;"/>
    </g>
    <g transform="matrix(1,0,0,1,-44.77,-21.16)">
        <path d="M310.23,853.8L305.71,847.8L310.23,840.8C310.23,840.8 323.78,846.27 329.81,845.52C335.84,844.77 338.81,855.31 327.55,858.32C316.29,861.33 252.23,858.32 252.23,858.32C252.23,858.32 240.93,853.05 252.23,838.74L262.02,846.27C262.02,846.27 278.59,855.27 286.88,853.8L310.23,853.8Z" style="fill:rgb(46,48,55);fill-rule:nonzero;"/>
    </g>
    <g transform="matrix(1,0,0,1,-44.77,-21.16)">
        <path d="M330.56,866.61L307.21,868.87L274.82,861.33L265,851.54L265.8,849.15L266.92,845.79L268.02,842.5L289.86,836.5C290.969,838.304 292.486,839.821 294.29,840.93C301.38,845.78 314.13,849.29 321.61,851.04C321.92,851.12 322.24,851.21 322.54,851.32C325.754,852.39 328.206,855.034 329.03,858.32L330.56,866.61Z" style="fill:rgb(219,139,139);fill-rule:nonzero;"/>
    </g>
    <g transform="matrix(1,0,0,1,-44.77,-21.16)">
        <path d="M330.56,866.61L307.21,868.87L274.82,861.33L265,851.54L265.8,849.15L274.8,856.06C274.8,856.06 291.38,865.06 299.66,863.59L323,863.59L318.48,857.59L322.54,851.32C325.754,852.39 328.206,855.034 329.03,858.32L330.56,866.61Z" style="fill-opacity:0.1;fill-rule:nonzero;"/>
    </g>
    <g transform="matrix(1,0,0,1,-44.77,-21.16)">
        <path d="M323,864.35L318.48,858.35L323,851.35C323,851.35 336.56,856.82 342.58,856.07C348.6,855.32 351.58,865.86 340.33,868.88C329.08,871.9 265,868.88 265,868.88C265,868.88 253.7,863.6 265,849.29L274.79,856.82C274.79,856.82 291.37,865.82 299.65,864.36L323,864.35Z" style="fill:rgb(46,48,55);fill-rule:nonzero;"/>
    </g>
    <g transform="matrix(1,0,0,1,-44.77,-21.16)">
        <path d="M304.2,427.48C304.2,427.48 268.05,431.24 273.32,416.18C274.797,411.91 275.179,407.336 274.43,402.88C273.494,397.355 271.312,392.116 268.05,387.56L301.94,392.83C299.909,396.224 298.364,399.887 297.35,403.71C293.31,419.7 304.2,427.48 304.2,427.48Z" style="fill:rgb(219,139,139);fill-rule:nonzero;"/>
    </g>
    <g transform="matrix(1,0,0,1,-44.77,-21.16)">
        <path d="M242.44,599.21C242.44,599.21 243.19,631.6 250.72,647.42L252.23,693.36C252.23,693.36 249.97,735.55 245.45,743.83C240.93,752.11 255.24,822.17 255.24,822.17L255.24,834.22C255.24,834.22 279.34,843.22 286.12,832.71L279.34,743.08L282.34,618.8L242.44,599.21Z" style="fill:rgb(53,50,62);fill-rule:nonzero;"/>
    </g>
    <g transform="matrix(1,0,0,1,-44.77,-21.16)">
        <path d="M242.43,599.21C242.43,599.21 243.18,631.6 250.71,647.42L252.22,693.36C252.22,693.36 249.96,735.55 245.44,743.83C240.92,752.11 255.23,822.17 255.23,822.17L255.23,834.22C255.23,834.22 279.33,843.22 286.11,832.71L279.33,743.08L282.33,618.8L242.43,599.21Z" style="fill-opacity:0.1;fill-rule:nonzero;"/>
    </g>
    <g transform="matrix(1,0,0,1,-44.77,-21.16)">
        <path d="M227.37,495.27L222.85,507.32L219.09,532.93C218.058,540.162 220.587,547.464 225.87,552.51C234.87,561.51 246.96,580.38 246.96,580.38L261.27,537.45C261.27,537.45 246.96,535.19 249.27,525.4C251.58,515.61 250.77,497.53 250.77,497.53L227.37,495.27Z" style="fill:rgb(0,0,128);fill-rule:nonzero;"/>
    </g>
    <g transform="matrix(1,0,0,1,-44.77,-21.16)">
        <path d="M294.32,840.91C284.65,856.12 269.62,847.5 266.95,845.79L268.05,842.5L289.89,836.5C291.001,838.296 292.519,839.807 294.32,840.91Z" style="fill-opacity:0.1;fill-rule:nonzero;"/>
    </g>
    <g transform="matrix(1,0,0,1,-44.77,-21.16)">
        <path d="M324.54,628.59C323.78,639.13 310.98,677.59 310.98,677.59L301.98,709.2C295.489,731.534 292.13,754.662 292,777.92C292,785.63 291.29,793.59 289.12,799.57C283.12,816.14 295.12,838.74 295.12,838.74C284.58,857.57 266.5,844.74 266.5,844.74L266.5,832.74C266.5,832.74 252.23,767.18 256,754.38C259.77,741.58 261.28,706.92 261.28,706.92L261.28,644.41C249.208,632.385 241.867,616.402 240.61,599.41C240.43,596.94 240.28,594.35 240.19,591.66C239.58,574.66 251.19,554.74 255.73,547.66C256.83,545.94 257.51,544.98 257.51,544.98L324,571.36L324.15,571.42L324.15,579.69L324.54,628.59Z" style="fill:rgb(53,50,62);fill-rule:nonzero;"/>
    </g>
    <g transform="matrix(1,0,0,1,-44.77,-21.16)">
        <path d="M301.94,392.83C299.909,396.224 298.364,399.887 297.35,403.71C289.915,406.544 281.64,406.244 274.43,402.88C273.494,397.355 271.312,392.116 268.05,387.56L301.94,392.83Z" style="fill-opacity:0.1;fill-rule:nonzero;"/>
    </g>
    <circle cx="242.11" cy="353.59" r="29.38" style="fill:rgb(219,139,139);"/>
    <g transform="matrix(1,0,0,1,-44.77,-21.16)">
        <path d="M324.54,579.63L324.21,579.69C292.63,586.18 253,553.27 253,553.27C254.066,551.478 254.982,549.602 255.74,547.66C256.84,545.94 257.52,544.98 257.52,544.98L324,571.36L324.17,573.99L324.54,579.63Z" style="fill-opacity:0.1;fill-rule:nonzero;"/>
    </g>
    <g transform="matrix(1,0,0,1,-44.77,-21.16)">
        <path d="M316.25,426.73C316.25,426.73 274.07,401.12 260.51,411.66L241.68,435.76C241.68,435.76 229.63,439.53 231.89,463.63L222.89,507.32L250,514.1C250,514.1 265.82,529.16 253,551.01C253,551.01 292.92,584.15 324.56,577.37L322.28,542C322.28,542 315.5,522.41 327.55,504.34C339.6,486.27 328.3,468.94 317.01,462.16C317,462.13 311.73,433.5 316.25,426.73Z" style="fill:rgb(0,0,128);fill-rule:nonzero;"/>
    </g>
    <g transform="matrix(1,0,0,1,-44.77,-21.16)">
        <path d="M318.51,580.38C318.51,580.38 334.33,583.38 341.86,595.45C344.034,599.074 346.688,602.387 349.75,605.3C350.977,606.435 351.675,608.033 351.675,609.704C351.675,611.789 350.588,613.73 348.81,614.82C342.81,618.42 333.09,620.63 320.81,610.51C299.68,593.19 318.51,580.38 318.51,580.38Z" style="fill:rgb(219,139,139);fill-rule:nonzero;"/>
    </g>
    <g transform="matrix(1,0,0,1,-44.77,-21.16)">
        <path d="M295.16,441C295.16,441 280.1,439.49 276.33,478.66C272.56,517.83 266.54,526.86 266.54,526.86C266.54,526.86 262.77,547.2 271.81,559.25C280.85,571.3 298.17,597 298.17,597C298.17,597 317.01,602.28 320.77,583.44L297.42,539.76C297.42,539.76 293.66,524.69 302.69,514.15C311.72,503.61 318.51,433.5 295.16,441Z" style="fill-opacity:0.1;fill-rule:nonzero;"/>
    </g>
    <g transform="matrix(1,0,0,1,-44.77,-21.16)">
        <path d="M296.67,438.78C296.67,438.78 281.6,437.27 277.84,476.44C274.08,515.61 268.05,524.64 268.05,524.64C268.05,524.64 264.28,545 273.32,557C282.36,569 299.68,594.66 299.68,594.66C299.68,594.66 318.51,599.94 322.28,581.11L298.93,537.42C298.93,537.42 295.16,522.35 304.2,511.81C313.24,501.27 320,431.24 296.67,438.78Z" style="fill:rgb(0,0,128);fill-rule:nonzero;"/>
    </g>
    <g transform="matrix(1,0,0,1,-44.77,-21.16)">
        <path d="M309.1,467C309.1,467 310.6,490.35 303.82,503.16C297.04,515.97 297.04,532.53 303.82,541.57" style="fill-opacity:0.1;fill-rule:nonzero;"/>
    </g>
    <g transform="matrix(1,0,0,1,-44.77,-21.16)">
        <path d="M312.86,438.4C312.86,438.4 306.86,432.4 289.51,431.62C272.16,430.84 264.66,425.62 264.66,425.62" style="fill-opacity:0.1;fill-rule:nonzero;"/>
    </g>
    <g transform="matrix(1,0,0,1,-44.77,-21.16)">
        <path d="M271,336.79C266.42,337.35 261.19,338.92 259.54,343.23C258.93,344.81 258.92,346.55 258.49,348.23C256.78,354.81 249.38,357.87 244.81,362.9C240.81,367.34 239,373.35 237.69,379.2C233.929,395.975 233.02,413.263 235,430.34C236.47,442.83 239.47,455.12 240.32,467.67C241.17,480.22 239.62,493.42 232.76,503.96C229.76,508.5 225.92,512.48 223.83,517.47C228.15,520.97 234.11,521.47 239.67,521.66C246.15,521.88 252.63,521.88 259.11,521.66C262.51,521.54 266.06,521.32 268.99,519.6C271.16,518.213 272.945,516.3 274.18,514.04C277.88,507.75 278.82,500.19 278.66,492.89C278.5,485.59 277.35,478.34 277.21,471.04C277.14,467.04 277.45,462.84 279.74,459.58C281.39,457.23 283.9,455.65 286.05,453.74C294.12,446.6 296.88,435.14 297.15,424.37C297.42,413.6 295.65,402.81 296.56,392.08C296.91,387.87 298.48,382.83 302.62,382.01C303.92,381.75 305.31,382.01 306.55,381.51C309.87,380.24 309.55,375.56 310.49,372.14C311.56,368.29 314.84,365.32 315.76,361.44C317.93,352.33 306.33,341.44 298.76,338.28C290.91,335 279.12,335.79 271,336.79Z" style="fill-opacity:0.1;fill-rule:nonzero;"/>
    </g>
    <g transform="matrix(1,0,0,1,-44.77,-21.16)">
        <path d="M270.21,335.29C265.63,335.85 260.4,337.42 258.75,341.72C258.324,343.367 257.991,345.036 257.75,346.72C256.04,353.3 248.63,356.36 244.06,361.4C240.06,365.83 238.25,371.84 236.94,377.7C233.196,394.488 232.304,411.786 234.3,428.87C235.77,441.36 238.77,453.66 239.61,466.2C240.45,478.74 238.92,491.95 232.06,502.49C229.06,507.03 225.22,511.01 223.13,516C227.45,519.51 233.41,520 238.97,520.19C245.45,520.41 251.93,520.41 258.41,520.19C261.81,520.07 265.36,519.86 268.29,518.13C270.461,516.748 272.245,514.834 273.47,512.57C277.18,506.28 278.11,498.72 277.96,491.42C277.81,484.12 276.64,476.87 276.51,469.57C276.44,465.57 276.75,461.37 279.03,458.12C280.69,455.76 283.2,454.18 285.35,452.28C293.41,445.13 296.18,433.67 296.45,422.9C296.72,412.13 294.94,401.34 295.85,390.61C296.21,386.41 297.78,381.36 301.91,380.55C303.22,380.29 304.61,380.55 305.85,380.04C309.17,378.77 308.85,374.1 309.79,370.67C310.85,366.82 314.13,363.86 315.06,359.98C317.23,350.86 305.63,339.98 298.06,336.81C290.15,333.51 278.37,334.28 270.21,335.29Z" style="fill:rgb(53,50,62);fill-rule:nonzero;"/>
    </g>
    <defs>
        <linearGradient id="_Linear1" x1="0" y1="0" x2="1" y2="0" gradientUnits="userSpaceOnUse" gradientTransform="matrix(3.324e-14,-542.85,542.85,3.324e-14,285.26,874.51)"><stop offset="0" style="stop-color:rgb(128,128,128);stop-opacity:0.25"/><stop offset="0.54" style="stop-color:rgb(128,128,128);stop-opacity:0.12"/><stop offset="1" style="stop-color:rgb(128,128,128);stop-opacity:0.1"/></linearGradient>
    </defs>
</svg>
